<svg xmlns="http://www.w3.org/2000/svg" width="48" height="50" viewBox="0 0 48 50">
    <g fill="#9A81A3" fill-rule="evenodd">
        <path d="M29.081 48.025H1.748c-.576 0-1.04-.46-1.04-1.027V9.63c0-.567.464-1.027 1.04-1.027h27.337-.004a1.04 1.04 0 0 1 1.02 1.027v37.368a1.037 1.037 0 0 1-1.02 1.027zM2.784 45.968h25.262V10.66H2.784v35.308z"/>
        <path d="M20.45 15.48c0-.58-.353-1.1-.893-1.32a1.451 1.451 0 0 0-1.57.312c-.41.41-.53 1.024-.308 1.56.226.532.753.878 1.335.875.381 0 .747-.151 1.017-.42.27-.267.42-.629.42-1.007zM23.19 19.616c.581 0 1.105-.346 1.328-.882a1.412 1.412 0 0 0-.311-1.553 1.45 1.45 0 0 0-1.57-.312 1.432 1.432 0 0 0-.887 1.32c0 .788.642 1.427 1.44 1.427zM21.029 21.33c0 1.903-2.88 1.903-2.88 0 0-1.906 2.88-1.906 2.88 0M24.629 24.75c0 1.904-2.88 1.904-2.88 0 0-1.902 2.88-1.902 2.88 0"/>
        <path d="M40.506 31.6c4.561-3.516 7.074-9.041 6.709-14.756-.365-5.714-3.56-10.884-8.53-13.801a17.59 17.59 0 0 0-16.309-.772c-5.231 2.432-8.908 7.274-9.82 12.929a17.213 17.213 0 0 0 5.257 15.323c4.201 3.931 10.093 5.544 15.737 4.312l6.101 12.86a3.862 3.862 0 0 0 3.484 2.182 3.843 3.843 0 0 0 3.248-1.774 3.784 3.784 0 0 0 .218-3.67L40.506 31.6zM14.39 17.906A15.203 15.203 0 0 1 18.9 7.1a15.484 15.484 0 0 1 10.9-4.48 15.48 15.48 0 0 1 10.9 4.473 15.214 15.214 0 0 1 4.517 10.802 15.22 15.22 0 0 1-4.513 10.806 15.484 15.484 0 0 1-10.9 4.476 15.501 15.501 0 0 1-10.891-4.48 15.222 15.222 0 0 1-4.522-10.792zM44.812 46.66a1.784 1.784 0 0 1-2.262 1.06 1.751 1.751 0 0 1-1.002-.905l-5.955-12.55a17.19 17.19 0 0 0 3.198-1.487l5.955 12.537c.2.423.225.904.066 1.345z"/>
    </g>
</svg>
