<?xml version="1.0" encoding="UTF-8"?>
<svg width="748px" height="175px" viewBox="0 0 748 175" version="1.1" xmlns="http://www.w3.org/2000/svg" xmlns:xlink="http://www.w3.org/1999/xlink">
    <!-- Generator: Sketch 51.3 (57544) - http://www.bohemiancoding.com/sketch -->
    <title>CF-Purple</title>
    <desc>Created with Sketch.</desc>
    <defs></defs>
    <g id="CF-Purple" stroke="none" stroke-width="1" fill="none" fill-rule="evenodd">
        <path d="M270.302,126.622 C259.579,126.622 252.302,123.655 248.479,117.722 C244.653,111.787 242.743,102.028 242.743,88.446 C242.743,74.864 244.673,65.194 248.534,59.438 C252.393,53.684 259.65,50.804 270.302,50.804 C276.665,50.804 283.669,51.699 291.321,53.486 L290.89,63.138 C284.457,61.994 278.023,61.421 271.59,61.421 C265.153,61.421 260.792,63.335 258.506,67.158 C256.216,70.984 255.075,78.169 255.075,88.713 C255.075,99.259 256.18,106.445 258.398,110.269 C260.613,114.093 264.939,116.006 271.376,116.006 C277.809,116.006 284.314,115.47 290.89,114.397 L291.215,124.262 C283.85,125.835 276.879,126.622 270.302,126.622" id="Fill-1" fill="#703E7B"></path>
        <path d="M312.778,125.443 L301.091,125.443 L301.091,49.519 L312.778,49.519 L312.778,74.612 C318.07,71.967 322.966,70.645 327.47,70.645 C334.617,70.645 339.498,72.664 342.108,76.703 C344.718,80.742 346.022,87.409 346.022,96.702 L346.022,125.443 L334.336,125.443 L334.336,97.024 C334.336,91.234 333.725,87.123 332.509,84.692 C331.294,82.263 328.722,81.045 324.789,81.045 C321.358,81.045 317.927,81.619 314.497,82.762 L312.778,83.405 L312.778,125.443" id="Fill-2" fill="#703E7B"></path>
        <path d="M374.159,101.636 C369.226,102.065 366.758,104.746 366.758,109.678 C366.758,114.611 368.938,117.078 373.299,117.078 C376.876,117.078 380.664,116.507 384.668,115.362 L386.597,114.719 L386.597,100.456 L374.159,101.636 Z M398.18,88.338 L398.18,112.788 C398.252,114.362 398.664,115.523 399.413,116.274 C400.165,117.025 401.326,117.508 402.898,117.722 L402.577,126.622 C396.426,126.622 391.673,125.3 388.313,122.653 C382.592,125.3 376.841,126.622 371.049,126.622 C360.396,126.622 355.069,120.939 355.069,109.571 C355.069,104.14 356.518,100.206 359.414,97.775 C362.31,95.346 366.758,93.88 372.764,93.379 L386.597,92.198 L386.597,88.338 C386.597,85.48 385.971,83.478 384.72,82.332 C383.468,81.19 381.63,80.617 379.198,80.617 C374.622,80.617 368.905,80.905 362.041,81.475 L358.61,81.689 L358.178,73.432 C365.97,71.573 373.14,70.645 379.68,70.645 C386.221,70.645 390.943,72.057 393.839,74.879 C396.731,77.705 398.18,82.19 398.18,88.338 Z" id="Fill-3" fill="#703E7B"></path>
        <path d="M411.841,125.443 L423.528,125.443 L423.528,71.823 L411.841,71.823 L411.841,125.443 Z M411.841,62.708 L423.528,62.708 L423.528,50.376 L411.841,50.376 L411.841,62.708 Z" id="Fill-4" fill="#703E7B"></path>
        <path d="M448.001,125.443 L436.314,125.443 L436.314,71.823 L447.893,71.823 L447.893,75.149 C453.111,72.146 458.047,70.645 462.693,70.645 C469.841,70.645 474.72,72.664 477.331,76.703 C479.941,80.742 481.245,87.409 481.245,96.702 L481.245,125.443 L469.665,125.443 L469.665,97.024 C469.665,91.234 469.036,87.123 467.788,84.692 C466.536,82.263 463.98,81.045 460.119,81.045 C456.473,81.045 452.971,81.762 449.609,83.191 L448.001,83.834 L448.001,125.443" id="Fill-5" fill="#703E7B"></path>
        <polyline id="Fill-6" fill="#703E7B" points="494.844 125.443 494.844 51.985 540.421 51.985 540.421 62.387 506.745 62.387 506.745 87.157 534.736 87.157 534.736 97.56 506.745 97.56 506.745 125.443 494.844 125.443"></polyline>
        <path d="M546.575,125.443 L546.575,71.823 L558.154,71.823 L558.154,78.258 C564.231,74.326 570.308,71.787 576.384,70.645 L576.384,82.332 C570.237,83.549 564.98,85.121 560.622,87.051 L558.261,88.017 L558.261,125.443 L546.575,125.443" id="Fill-7" fill="#703E7B"></path>
        <path d="M596.521,112.467 C598.166,115.326 601.382,116.757 606.175,116.757 C610.964,116.757 614.181,115.326 615.825,112.467 C617.469,109.609 618.293,104.924 618.293,98.418 C618.293,91.913 617.418,87.302 615.667,84.585 C613.912,81.869 610.748,80.51 606.175,80.51 C601.599,80.51 598.435,81.869 596.684,84.585 C594.929,87.302 594.057,91.913 594.057,98.418 C594.057,104.924 594.878,109.609 596.521,112.467 Z M587.783,77.614 C591.464,72.968 597.595,70.645 606.175,70.645 C614.752,70.645 620.883,72.968 624.564,77.614 C628.248,82.263 630.089,89.233 630.089,98.525 C630.089,107.82 628.299,114.825 624.726,119.544 C621.15,124.262 614.969,126.622 606.175,126.622 C597.38,126.622 591.197,124.262 587.624,119.544 C584.047,114.825 582.26,107.82 582.26,98.525 C582.26,89.233 584.099,82.263 587.783,77.614 Z" id="Fill-8" fill="#703E7B"></path>
        <path d="M652.416,125.443 L640.729,125.443 L640.729,71.823 L652.308,71.823 L652.308,75.149 C657.526,72.146 662.462,70.645 667.108,70.645 C674.255,70.645 679.135,72.664 681.746,76.703 C684.356,80.742 685.66,87.409 685.66,96.702 L685.66,125.443 L674.08,125.443 L674.08,97.024 C674.08,91.234 673.451,87.123 672.203,84.692 C670.951,82.263 668.395,81.045 664.534,81.045 C660.888,81.045 657.386,81.762 654.024,83.191 L652.416,83.834 L652.416,125.443" id="Fill-9" fill="#703E7B"></path>
        <path d="M726.667,81.796 L711.867,81.796 L711.867,105.39 C711.867,109.751 712.188,112.645 712.833,114.075 C713.475,115.507 715.119,116.22 717.765,116.22 L726.559,115.898 L727.094,125.229 C722.305,126.155 718.657,126.622 716.157,126.622 C710.08,126.622 705.917,125.229 703.663,122.44 C701.413,119.651 700.284,114.397 700.284,106.675 L700.284,81.796 L693.422,81.796 L693.422,71.823 L700.284,71.823 L700.284,56.275 L711.867,56.275 L711.867,71.823 L726.667,71.823 L726.667,81.796" id="Fill-10" fill="#703E7B"></path>
        <path d="M150.801,134.275 L120.332,134.275 C117.747,134.275 115.652,132.18 115.652,129.595 C115.652,127.01 117.747,124.915 120.332,124.915 L150.801,124.915 C162.671,124.915 172.328,115.257 172.328,103.388 C172.328,93.532 165.65,84.959 156.088,82.539 C151.463,81.334 148.292,77.19 148.344,72.45 C148.416,65.134 145.397,57.846 140.067,52.461 C134.933,47.278 128.108,44.423 120.85,44.423 C108.29,44.423 99.97,52.121 96.373,59.325 C93.783,64.408 87.573,66.428 82.522,63.864 C78.327,61.767 73.147,61.992 69.033,64.463 C64.291,67.313 61.885,72.222 61.885,79.055 C61.885,81.64 59.79,83.735 57.205,83.735 C54.621,83.735 52.525,81.64 52.525,79.055 C52.525,66.165 58.882,59.642 64.214,56.44 C71.048,52.335 79.675,51.978 86.734,55.506 C87.223,55.749 87.785,55.568 88.017,55.109 C92.848,45.436 104.023,35.064 120.848,35.064 C130.625,35.064 139.811,38.904 146.717,45.875 C153.794,53.023 157.799,62.744 157.704,72.549 C157.698,72.986 157.991,73.363 158.415,73.474 C172.105,76.94 181.688,89.244 181.688,103.388 C181.688,120.418 167.832,134.275 150.801,134.275" id="Fill-11" fill="#957695"></path>
        <path d="M90.364,129.404 C90.364,126.867 88.346,124.798 85.816,124.725 L72.713,124.725 L59.777,105.127 C58.915,103.804 57.445,103.007 55.865,103.007 L43.734,103.007 C41.416,95.548 34.002,90.898 26.28,92.061 C18.558,93.216 12.833,99.841 12.811,107.65 C12.789,115.496 18.508,122.172 26.265,123.342 C34.016,124.512 41.461,119.832 43.757,112.33 L43.749,112.337 L53.336,112.337 L66.234,131.97 C67.096,133.286 68.574,134.083 70.146,134.083 L85.684,134.083 C88.273,134.083 90.364,131.985 90.364,129.403 L90.364,129.404 Z M24.042,103.066 C25.892,101.215 28.677,100.667 31.09,101.669 C33.504,102.67 35.076,105.032 35.069,107.65 C35.054,111.211 32.166,114.092 28.612,114.092 C25.051,114.077 22.17,111.189 22.17,107.635 C22.163,105.924 22.836,104.279 24.042,103.066 Z" id="Fill-12" fill="#703E7B"></path>
        <path d="M98.524,129.403 C98.524,131.987 100.619,134.083 103.204,134.083 C105.789,134.083 107.883,131.987 107.883,129.403 C107.883,126.819 105.789,124.724 103.204,124.724 C100.619,124.724 98.524,126.819 98.524,129.403" id="Fill-13" fill="#703E7B"></path>
    </g>
</svg>