<?xml version="1.0" encoding="utf-8"?>
<!-- Generator: Adobe Illustrator 22.1.0, SVG Export Plug-In . SVG Version: 6.00 Build 0)  -->
<svg version="1.1" id="Layer_1" xmlns="http://www.w3.org/2000/svg" xmlns:xlink="http://www.w3.org/1999/xlink" x="0px" y="0px"
	 viewBox="0 0 1184 381" style="enable-background:new 0 0 1184 381;" xml:space="preserve">
<style type="text/css">
	.st0{opacity:0.2;}
	.st1{fill:#9E84A8;}
	.st2{opacity:0.5;}
	.st3{opacity:0.3;}
	.st4{opacity:0.1;}
	.st5{opacity:0.7;}
	.st6{opacity:0.6;}
	.st7{opacity:0.8;}
</style>
<g>
	<g class="st0">
		<polygon class="st1" points="156.7,259.3 99.5,230.7 203.7,251.1 		"/>
	</g>
	<g class="st0">
		<polygon class="st1" points="352.4,131 393.3,143.5 395.7,91.7 		"/>
	</g>
	<g class="st2">
		
			<rect x="66.3" y="213.8" transform="matrix(0.1919 -0.9814 0.9814 0.1919 -204.4178 278.3041)" class="st1" width="0.9" height="99"/>
	</g>
	<g class="st3">
		
			<rect x="154.8" y="248.1" transform="matrix(0.4456 -0.8952 0.8952 0.4456 -175.9093 301.259)" class="st1" width="0.9" height="89.2"/>
	</g>
	<g class="st4">
		<path class="st1" d="M647.8,53.4"/>
	</g>
	<g class="st0">
		<polygon class="st1" points="509.1,115.6 571,126.3 544.5,52 		"/>
	</g>
	<g>
		<path class="st1" d="M305.5,177.9c1.6,1.3,1.8,3.5,0.6,5.1c-1.3,1.6-3.5,1.8-5.1,0.6c-1.6-1.3-1.8-3.5-0.6-5.1
			C301.6,176.9,303.9,176.6,305.5,177.9z"/>
	</g>
	<g>
		<path class="st1" d="M651.1,55.4c-1.1,1.9-3.5,2.5-5.3,1.4c-1.9-1.1-2.5-3.5-1.4-5.3c1.1-1.9,3.5-2.5,5.3-1.4
			S652.2,53.5,651.1,55.4z"/>
	</g>
	<g>
		<path class="st1" d="M396.6,145.5c-1.1,1.9-3.5,2.5-5.3,1.4c-1.9-1.1-2.5-3.5-1.4-5.3c1.1-1.9,3.5-2.5,5.3-1.4
			C397.1,141.2,397.7,143.6,396.6,145.5z"/>
	</g>
	<g>
		<path class="st1" d="M207,253c-1.1,1.9-3.5,2.5-5.3,1.4c-1.9-1.1-2.5-3.5-1.4-5.3c1.1-1.9,3.5-2.5,5.3-1.4S208.1,251.1,207,253z"
			/>
	</g>
	<g>
		<path class="st1" d="M573.4,123.3c1.7,1.3,2,3.8,0.6,5.5c-1.3,1.7-3.8,2-5.5,0.6s-2-3.8-0.6-5.5
			C569.3,122.2,571.7,121.9,573.4,123.3z"/>
	</g>
	<g>
		<path class="st1" d="M462.9,170.4c1.7,1.3,2,3.8,0.6,5.5c-1.3,1.7-3.8,2-5.5,0.6c-1.7-1.3-2-3.8-0.6-5.5
			C458.8,169.3,461.2,169.1,462.9,170.4z"/>
	</g>
	<g>
		<path class="st1" d="M295.2,282.7c1.7,1.3,2,3.8,0.6,5.5c-1.3,1.7-3.8,2-5.5,0.6c-1.7-1.3-2-3.8-0.6-5.5
			C291,281.6,293.5,281.3,295.2,282.7z"/>
	</g>
	<g>
		<circle class="st1" cx="18.2" cy="253.8" r="2"/>
	</g>
	<g>
		<path class="st1" d="M461.2,97.8c1,0.8,1.2,2.3,0.4,3.3c-0.8,1-2.3,1.2-3.3,0.4c-1-0.8-1.2-2.3-0.4-3.3
			C458.7,97.2,460.2,97,461.2,97.8z"/>
	</g>
	<g>
		<path class="st1" d="M248.5,211.9c1,0.8,1.2,2.3,0.4,3.3c-0.8,1-2.3,1.2-3.3,0.4c-1-0.8-1.2-2.3-0.4-3.3
			C246,211.3,247.4,211.1,248.5,211.9z"/>
	</g>
	<g>
		<path class="st1" d="M158.2,257.5c1,0.8,1.2,2.3,0.4,3.3c-0.8,1-2.3,1.2-3.3,0.4c-1-0.8-1.2-2.3-0.4-3.3
			C155.7,256.9,157.2,256.7,158.2,257.5z"/>
	</g>
	<g>
		<path class="st1" d="M511.5,112.5c1.7,1.3,2,3.8,0.6,5.5c-1.3,1.7-3.8,2-5.5,0.6s-2-3.8-0.6-5.5
			C507.4,111.5,509.8,111.2,511.5,112.5z"/>
	</g>
	<g>
		<path class="st1" d="M480.3,47.6c1.5,1.2,1.7,3.3,0.6,4.8c-1.2,1.5-3.3,1.7-4.8,0.6c-1.5-1.2-1.7-3.3-0.6-4.8
			C476.7,46.7,478.8,46.4,480.3,47.6z"/>
	</g>
	<g>
		<path class="st1" d="M546.9,49c1.7,1.3,2,3.8,0.6,5.5c-1.3,1.7-3.8,2-5.5,0.6c-1.7-1.3-2-3.8-0.6-5.5S545.3,47.6,546.9,49z"/>
	</g>
	<g>
		<path class="st1" d="M623.8,96.4c1,0.8,1.2,2.3,0.4,3.3c-0.8,1-2.3,1.2-3.3,0.4c-1-0.8-1.2-2.3-0.4-3.3
			C621.3,95.7,622.8,95.6,623.8,96.4z"/>
	</g>
	<g>
		<path class="st1" d="M398.8,179.9c1,0.8,1.2,2.3,0.4,3.3c-0.8,1-2.3,1.2-3.3,0.4c-1-0.8-1.2-2.3-0.4-3.3
			C396.3,179.2,397.8,179.1,398.8,179.9z"/>
	</g>
	<g>
		<path class="st1" d="M393.5,207.8c1,0.8,1.2,2.3,0.4,3.3c-0.8,1-2.3,1.2-3.3,0.4c-1-0.8-1.2-2.3-0.4-3.3
			C391,207.2,392.5,207,393.5,207.8z"/>
	</g>
	<g>
		<path class="st1" d="M209.3,208c1,0.8,1.2,2.3,0.4,3.3c-0.8,1-2.3,1.2-3.3,0.4c-1-0.8-1.2-2.3-0.4-3.3
			C206.8,207.4,208.2,207.2,209.3,208z"/>
	</g>
	<g>
		<path class="st1" d="M353.2,86.4c0.7,0.5,0.8,1.5,0.3,2.2c-0.5,0.7-1.5,0.8-2.2,0.3c-0.7-0.5-0.8-1.5-0.3-2.2
			C351.5,86,352.5,85.9,353.2,86.4z"/>
	</g>
	<g>
		<path class="st1" d="M82.2,303.4c0.7,0.5,0.8,1.5,0.3,2.2c-0.5,0.7-1.5,0.8-2.2,0.3c-0.7-0.5-0.8-1.5-0.3-2.2
			C80.6,303,81.6,302.8,82.2,303.4z"/>
	</g>
	<g>
		<path class="st1" d="M140.7,210.4c0.7,0.5,0.8,1.5,0.3,2.2c-0.5,0.7-1.5,0.8-2.2,0.3c-0.7-0.5-0.8-1.5-0.3-2.2
			C139,209.9,140,209.8,140.7,210.4z"/>
	</g>
	<g>
		<path class="st1" d="M100.6,229.8c0.7,0.5,0.8,1.5,0.3,2.2c-0.5,0.7-1.5,0.8-2.2,0.3c-0.7-0.5-0.8-1.5-0.3-2.2
			C98.9,229.4,99.9,229.3,100.6,229.8z"/>
	</g>
	<g>
		<path class="st1" d="M354.4,128.6c1.4,1.1,1.6,3.1,0.5,4.4c-1.1,1.4-3.1,1.6-4.4,0.5c-1.4-1.1-1.6-3.1-0.5-4.4
			C351.1,127.8,353.1,127.5,354.4,128.6z"/>
	</g>
	<g>
		<path class="st1" d="M331.1,209.6c0.7,0.5,0.8,1.5,0.3,2.2c-0.5,0.7-1.5,0.8-2.2,0.3c-0.7-0.5-0.8-1.5-0.3-2.2
			C329.4,209.2,330.4,209.1,331.1,209.6z"/>
	</g>
	<g>
		<path class="st1" d="M206,276.2c1,0.8,1.2,2.2,0.4,3.2c-0.8,1-2.2,1.2-3.2,0.4c-1-0.8-1.2-2.2-0.4-3.2
			C203.6,275.5,205,275.4,206,276.2z"/>
	</g>
	<g>
		<path class="st1" d="M443.3,29.1c0.7,0.5,0.8,1.5,0.3,2.2c-0.5,0.7-1.5,0.8-2.2,0.3c-0.7-0.5-0.8-1.5-0.3-2.2
			C441.7,28.6,442.6,28.5,443.3,29.1z"/>
	</g>
	<g>
		<path class="st1" d="M256.7,158.3c0.3,0.3,0.4,0.8,0.1,1.1c-0.3,0.3-0.8,0.4-1.1,0.1c-0.3-0.3-0.4-0.8-0.1-1.1
			C255.9,158.1,256.4,158,256.7,158.3z"/>
	</g>
	<g>
		<path class="st1" d="M312.6,82.3c0.3,0.3,0.4,0.8,0.1,1.1c-0.3,0.3-0.8,0.4-1.1,0.1c-0.3-0.3-0.4-0.8-0.1-1.1
			C311.8,82,312.3,82,312.6,82.3z"/>
	</g>
	<g>
		<path class="st1" d="M416.1,83.5c0.3,0.3,0.4,0.8,0.1,1.1c-0.3,0.3-0.8,0.4-1.1,0.1c-0.3-0.3-0.4-0.8-0.1-1.1
			C415.2,83.3,415.7,83.3,416.1,83.5z"/>
	</g>
	<g>
		<path class="st1" d="M355,37.3c0.3,0.3,0.4,0.8,0.1,1.1c-0.3,0.3-0.8,0.4-1.1,0.1c-0.3-0.3-0.4-0.8-0.1-1.1
			C354.2,37.1,354.7,37,355,37.3z"/>
	</g>
	<g>
		<path class="st1" d="M275.2,86.1c0.3,0.3,0.4,0.8,0.1,1.1c-0.3,0.3-0.8,0.4-1.1,0.1c-0.3-0.3-0.4-0.8-0.1-1.1
			C274.3,85.9,274.8,85.8,275.2,86.1z"/>
	</g>
	<g>
		<path class="st1" d="M65.4,211.8c0.3,0.3,0.4,0.8,0.1,1.1c-0.3,0.3-0.8,0.4-1.1,0.1c-0.3-0.3-0.4-0.8-0.1-1.1
			C64.6,211.6,65,211.5,65.4,211.8z"/>
	</g>
	<g>
		<path class="st1" d="M173.5,196.4c0.3,0.3,0.4,0.8,0.1,1.1c-0.3,0.3-0.8,0.4-1.1,0.1c-0.3-0.3-0.4-0.8-0.1-1.1
			C172.6,196.2,173.1,196.1,173.5,196.4z"/>
	</g>
	<g>
		<path class="st1" d="M182,240.7c0.3,0.3,0.4,0.8,0.1,1.1c-0.3,0.3-0.8,0.4-1.1,0.1c-0.3-0.3-0.4-0.8-0.1-1.1
			C181.2,240.5,181.7,240.5,182,240.7z"/>
	</g>
	<g>
		<path class="st1" d="M114.5,197.9c0.3,0.3,0.4,0.8,0.1,1.1c-0.3,0.3-0.8,0.4-1.1,0.1c-0.3-0.3-0.4-0.8-0.1-1.1
			C113.7,197.7,114.2,197.7,114.5,197.9z"/>
	</g>
	<g>
		<path class="st1" d="M189.8,163.5c0.3,0.3,0.4,0.8,0.1,1.1c-0.3,0.3-0.8,0.4-1.1,0.1c-0.3-0.3-0.4-0.8-0.1-1.1
			C189,163.3,189.5,163.3,189.8,163.5z"/>
	</g>
	<g>
		<path class="st1" d="M108.4,362.3c0.3,0.3,0.4,0.8,0.1,1.1c-0.3,0.3-0.8,0.4-1.1,0.1c-0.3-0.3-0.4-0.8-0.1-1.1
			C107.6,362.1,108.1,362.1,108.4,362.3z"/>
	</g>
	<g>
		<path class="st1" d="M122.3,297.3c0.3,0.3,0.4,0.8,0.1,1.1c-0.3,0.3-0.8,0.4-1.1,0.1c-0.3-0.3-0.4-0.8-0.1-1.1
			C121.5,297.1,122,297.1,122.3,297.3z"/>
	</g>
	<g>
		<path class="st1" d="M39.8,291.4c0.3,0.3,0.4,0.8,0.1,1.1c-0.3,0.3-0.8,0.4-1.1,0.1c-0.3-0.3-0.4-0.8-0.1-1.1
			C39,291.2,39.4,291.1,39.8,291.4z"/>
	</g>
	<g>
		<path class="st1" d="M411.5,21.6c0.3,0.3,0.4,0.8,0.1,1.1c-0.3,0.3-0.8,0.4-1.1,0.1c-0.3-0.3-0.4-0.8-0.1-1.1
			C410.7,21.4,411.2,21.4,411.5,21.6z"/>
	</g>
	<g>
		<path class="st1" d="M332.8,228c0.3,0.3,0.4,0.8,0.1,1.1c-0.3,0.3-0.8,0.4-1.1,0.1c-0.3-0.3-0.4-0.8-0.1-1.1
			C332,227.8,332.5,227.7,332.8,228z"/>
	</g>
	<g>
		<path class="st1" d="M181.5,338.4c0.3,0.3,0.4,0.8,0.1,1.1c-0.3,0.3-0.8,0.4-1.1,0.1c-0.3-0.3-0.4-0.8-0.1-1.1
			C180.6,338.2,181.1,338.2,181.5,338.4z"/>
	</g>
	<g>
		<path class="st1" d="M272.5,305.8c0.3,0.3,0.4,0.8,0.1,1.1c-0.3,0.3-0.8,0.4-1.1,0.1c-0.3-0.3-0.4-0.8-0.1-1.1
			C271.7,305.6,272.2,305.5,272.5,305.8z"/>
	</g>
	<g>
		<path class="st1" d="M734.6,35.6c0.3,0.3,0.4,0.8,0.1,1.1c-0.3,0.3-0.8,0.4-1.1,0.1c-0.3-0.3-0.4-0.8-0.1-1.1
			C733.7,35.4,734.2,35.4,734.6,35.6z"/>
	</g>
	<g>
		<path class="st1" d="M670.1,65.7c0.3,0.3,0.4,0.8,0.1,1.1c-0.3,0.3-0.8,0.4-1.1,0.1c-0.3-0.3-0.4-0.8-0.1-1.1
			C669.3,65.5,669.8,65.4,670.1,65.7z"/>
	</g>
	<g>
		<path class="st1" d="M501.4,153.6c0.4-0.2,0.8-0.1,1.1,0.2c0.2,0.4,0.1,0.8-0.2,1.1c-0.4,0.2-0.8,0.1-1.1-0.2
			C501,154.4,501.1,153.9,501.4,153.6z"/>
	</g>
	<g>
		<path class="st1" d="M444.1,153.5c0.4-0.2,0.8-0.1,1.1,0.2c0.2,0.4,0.1,0.8-0.2,1.1c-0.4,0.2-0.8,0.1-1.1-0.2
			C443.7,154.2,443.8,153.7,444.1,153.5z"/>
	</g>
	<g>
		<path class="st1" d="M442.6,195.1c0.4-0.2,0.8-0.1,1.1,0.2c0.2,0.4,0.1,0.8-0.2,1.1c-0.4,0.2-0.8,0.1-1.1-0.2
			C442.1,195.8,442.2,195.3,442.6,195.1z"/>
	</g>
	<g>
		<path class="st1" d="M312.3,279.6c0.4-0.2,0.8-0.1,1.1,0.2c0.2,0.4,0.1,0.8-0.2,1.1c-0.4,0.2-0.8,0.1-1.1-0.2
			C311.9,280.3,312,279.8,312.3,279.6z"/>
	</g>
	<g>
		<path class="st1" d="M196.3,310.5c1,0.8,1.2,2.3,0.4,3.3c-0.8,1-2.3,1.2-3.3,0.4c-1-0.8-1.2-2.3-0.4-3.3
			C193.8,309.8,195.3,309.7,196.3,310.5z"/>
	</g>
	<g>
		<path class="st1" d="M292.8,128.5c1,0.8,1.2,2.3,0.4,3.3c-0.8,1-2.3,1.2-3.3,0.4c-1-0.8-1.2-2.3-0.4-3.3
			C290.3,127.9,291.7,127.7,292.8,128.5z"/>
	</g>
	<g>
		<path class="st1" d="M117.3,271.3c1,0.8,1.2,2.3,0.4,3.3c-0.8,1-2.3,1.2-3.3,0.4c-1-0.8-1.2-2.3-0.4-3.3
			C114.8,270.6,116.3,270.5,117.3,271.3z"/>
	</g>
	<g>
		<path class="st1" d="M102,246c1.2,0.5,1.7,1.9,1.1,3.1c-0.5,1.2-1.9,1.7-3.1,1.1c-1.2-0.5-1.7-1.9-1.1-3.1
			C99.4,245.9,100.8,245.4,102,246z"/>
	</g>
	<g>
		<path class="st1" d="M397.1,89.9c1,0.8,1.2,2.3,0.4,3.3c-0.8,1-2.3,1.2-3.3,0.4c-1-0.8-1.2-2.3-0.4-3.3
			C394.7,89.2,396.1,89.1,397.1,89.9z"/>
	</g>
	<g class="st3">
		<path class="st1" d="M537,26.5l-27.3,88.7l62.9,10.9l-112.1,47.8l-0.2-0.1l-68-30.2l67.1-44.3l18.5-49.4l58.4-24.1 M648.7,54.5
			 M460.5,173l108.9-46.4l-60.9-10.6l0.2-0.5L535.9,27l-57.3,23.6l-18.4,49.3L460,100l-65.8,43.5L460.5,173z M646.8,52.4
			 M537.3,25.4"/>
	</g>
	<g class="st5">
		<path class="st1" d="M460.1,174.7L459.3,99l50.6,16.3L460.1,174.7z M460.2,100.2l0.7,72l47.4-56.4L460.2,100.2z"/>
	</g>
	<g>
		
			<rect x="490.4" y="83.3" transform="matrix(0.4871 -0.8733 0.8733 0.4871 197.0288 503.0706)" class="st1" width="72.8" height="0.9"/>
	</g>
	<g class="st3">
		<polyline class="st1" points="442.7,30.5 396.5,91.3 459.8,99.2 459.7,100.1 394.8,92 442,30 		"/>
	</g>
	<g class="st6">
		<path class="st1" d="M648.2,53.7L648.2,53.7l-77.4,73.5l-26.6-74.7l-65.3-1.7l30.6,64.6l-0.8,0.4l-31.2-66l67.4,1.8l0.1,0.3
			l26.2,73.7l76.2-72.3"/>
	</g>
	<g class="st5">
		<polyline class="st1" points="478.7,51 442.1,30.7 442.6,29.9 477.8,49.5 		"/>
	</g>
	<g class="st3">
		<path class="st1" d="M646.1,54.8 M649.4,52"/>
	</g>
	<g>
		<line class="st1" x1="571.4" y1="126.5" x2="570.5" y2="126.2"/>
	</g>
	<g class="st7">
		<polyline class="st1" points="545,51.6 647.8,53 647.8,53.9 544.1,52.5 		"/>
		<polyline class="st1" points="478.5,50.6 478.4,50.7 396.1,92 393.7,144.1 352.7,131.6 330.5,211.2 330.3,211.3 204.1,251.4 
			205.1,278.6 156.7,259.8 115.5,273.2 115.2,272.4 156.7,258.9 156.9,258.9 204.1,277.3 203.2,250.7 329.8,210.5 352,130.5 
			392.8,142.9 395.2,91.4 395.5,91.3 478,49.9 		"/>
	</g>
	<g class="st3">
		<polygon class="st1" points="156.5,259.7 99.3,231.1 99.7,230.3 156.9,258.9 		"/>
	</g>
	<g class="st2">
		<polygon class="st1" points="293.5,286 195,313.1 156.5,259.7 100.9,248.5 18.3,254.2 18.2,253.3 101,247.6 101.1,247.6 
			157,258.9 157.1,259.1 195.4,312 292.1,285.4 246.6,214 247.4,213.5 		"/>
	</g>
	<g class="st3">
		<polygon class="st1" points="397.3,182.2 302.6,181.9 302.5,181.5 290.9,130.4 291.7,130.2 303.3,181 397.3,181.3 		"/>
	</g>
	<g class="st5">
		<polygon class="st1" points="293.2,286.2 204.9,278.4 195.7,312.7 194.8,312.4 204.2,277.5 292.4,285.2 302.5,181.1 393.7,142.9 
			397.7,181.2 460.4,173 460.6,173.9 396.9,182.2 392.9,144.2 303.4,181.8 		"/>
	</g>
	<g class="st3">
		<polygon class="st1" points="293.2,285.9 292.4,285.5 329.8,210.5 330,210.4 397.1,181.3 397.5,182.1 330.5,211.2 		"/>
	</g>
	<g class="st3">
		<polygon class="st1" points="203.7,251.5 156.8,259.8 115.2,273.3 100.5,248.1 99,230.8 99.9,230.7 101.4,247.9 115.6,272.2 
			156.6,258.9 203.6,250.6 		"/>
	</g>
	<g class="st3">
		<polygon class="st1" points="329.8,211.1 303.3,181.4 247.2,214.1 246.8,213.3 303.5,180.3 330.5,210.5 		"/>
	</g>
	<g>
		
			<rect x="196.7" y="231.9" transform="matrix(0.7577 -0.6526 0.6526 0.7577 -97.0656 203.3624)" class="st1" width="57.2" height="0.9"/>
	</g>
	<g class="st3">
		<path class="st1" d="M247.4,213.9l-0.8-0.4l44.4-83.6l0.2,0l106.5-39.4l-45.2,41l-0.2,0l-60.8-0.7L247.4,213.9z M293.7,129.9
			l58.4,0.7l41.5-37.7L293.7,129.9z"/>
	</g>
	<g class="st2">
		<polygon class="st1" points="203.6,251.5 99.5,231.2 18.4,254.2 18.1,253.4 99.4,230.3 99.5,230.3 203.7,250.6 		"/>
	</g>
	<g class="st4">
		<polygon class="st1" points="247,213.7 303.4,180.8 292.8,285.7 		"/>
	</g>
</g>
<g>
	<g class="st0">
		<polygon class="st1" points="1057.9,266.8 1115.1,238.2 1010.9,258.6 		"/>
	</g>
	<g class="st0">
		<polygon class="st1" points="862.2,138.5 821.3,151 818.9,99.2 		"/>
	</g>
	<g class="st2">
		<line class="st1" x1="1099.2" y1="279.8" x2="1099.3" y2="280.7"/>
	</g>
	<g class="st3">
		
			<rect x="1014.7" y="299.7" transform="matrix(0.8952 -0.4456 0.4456 0.8952 -22.762 503.5251)" class="st1" width="89.2" height="0.9"/>
	</g>
	<g class="st4">
		<path class="st1" d="M566.8,60.9"/>
	</g>
	<g class="st0">
		<polygon class="st1" points="705.5,123.1 643.6,133.8 670.1,59.5 		"/>
	</g>
	<g>
		<path class="st1" d="M909.1,185.4c-1.6,1.3-1.8,3.5-0.6,5.1c1.3,1.6,3.5,1.8,5.1,0.6c1.6-1.3,1.8-3.5,0.6-5.1
			C913,184.4,910.7,184.1,909.1,185.4z"/>
	</g>
	<g>
		<path class="st1" d="M563.5,62.9c1.1,1.9,3.5,2.5,5.3,1.4c1.9-1.1,2.5-3.5,1.4-5.3c-1.1-1.9-3.5-2.5-5.3-1.4
			C563,58.6,562.4,61,563.5,62.9z"/>
	</g>
	<g>
		<path class="st1" d="M818,153c1.1,1.9,3.5,2.5,5.3,1.4c1.9-1.1,2.5-3.5,1.4-5.3c-1.1-1.9-3.5-2.5-5.3-1.4
			C817.5,148.7,816.9,151.1,818,153z"/>
	</g>
	<g>
		<path class="st1" d="M1007.6,260.5c1.1,1.9,3.5,2.5,5.3,1.4c1.9-1.1,2.5-3.5,1.4-5.3c-1.1-1.9-3.5-2.5-5.3-1.4
			C1007.1,256.3,1006.5,258.6,1007.6,260.5z"/>
	</g>
	<g>
		<path class="st1" d="M641.2,130.8c-1.7,1.3-2,3.8-0.6,5.5s3.8,2,5.5,0.6c1.7-1.3,2-3.8,0.6-5.5S642.9,129.4,641.2,130.8z"/>
	</g>
	<g>
		<path class="st1" d="M751.7,177.9c-1.7,1.3-2,3.8-0.6,5.5c1.3,1.7,3.8,2,5.5,0.6c1.7-1.3,2-3.8,0.6-5.5S753.4,176.6,751.7,177.9z"
			/>
	</g>
	<g>
		<path class="st1" d="M919.4,290.2c-1.7,1.3-2,3.8-0.6,5.5c1.3,1.7,3.8,2,5.5,0.6c1.7-1.3,2-3.8,0.6-5.5
			C923.6,289.1,921.1,288.8,919.4,290.2z"/>
	</g>
	<g>
		<path class="st1" d="M753.4,105.3c-1,0.8-1.2,2.3-0.4,3.3c0.8,1,2.3,1.2,3.3,0.4c1-0.8,1.2-2.3,0.4-3.3
			C755.9,104.7,754.4,104.5,753.4,105.3z"/>
	</g>
	<g>
		<path class="st1" d="M966.1,219.4c-1,0.8-1.2,2.3-0.4,3.3c0.8,1,2.3,1.2,3.3,0.4c1-0.8,1.2-2.3,0.4-3.3
			C968.6,218.8,967.2,218.6,966.1,219.4z"/>
	</g>
	<g>
		<path class="st1" d="M1056.4,265c-1,0.8-1.2,2.3-0.4,3.3c0.8,1,2.3,1.2,3.3,0.4c1-0.8,1.2-2.3,0.4-3.3
			C1058.9,264.4,1057.4,264.2,1056.4,265z"/>
	</g>
	<g>
		<path class="st1" d="M703.1,120c-1.7,1.3-2,3.8-0.6,5.5s3.8,2,5.5,0.6c1.7-1.3,2-3.8,0.6-5.5S704.8,118.7,703.1,120z"/>
	</g>
	<g>
		<path class="st1" d="M734.3,55.1c-1.5,1.2-1.7,3.3-0.6,4.8c1.2,1.5,3.3,1.7,4.8,0.6c1.5-1.2,1.7-3.3,0.6-4.8
			C737.9,54.2,735.8,53.9,734.3,55.1z"/>
	</g>
	<g>
		<path class="st1" d="M667.7,56.5c-1.7,1.3-2,3.8-0.6,5.5c1.3,1.7,3.8,2,5.5,0.6c1.7-1.3,2-3.8,0.6-5.5
			C671.8,55.4,669.3,55.1,667.7,56.5z"/>
	</g>
	<g>
		<path class="st1" d="M590.8,103.9c-1,0.8-1.2,2.3-0.4,3.3c0.8,1,2.3,1.2,3.3,0.4c1-0.8,1.2-2.3,0.4-3.3
			C593.3,103.2,591.8,103.1,590.8,103.9z"/>
	</g>
	<g>
		<path class="st1" d="M815.8,187.4c-1,0.8-1.2,2.3-0.4,3.3c0.8,1,2.3,1.2,3.3,0.4c1-0.8,1.2-2.3,0.4-3.3
			C818.3,186.7,816.8,186.6,815.8,187.4z"/>
	</g>
	<g>
		<path class="st1" d="M821.1,215.3c-1,0.8-1.2,2.3-0.4,3.3c0.8,1,2.3,1.2,3.3,0.4c1-0.8,1.2-2.3,0.4-3.3
			C823.6,214.7,822.1,214.5,821.1,215.3z"/>
	</g>
	<g>
		<path class="st1" d="M1005.3,215.5c-1,0.8-1.2,2.3-0.4,3.3c0.8,1,2.3,1.2,3.3,0.4c1-0.8,1.2-2.3,0.4-3.3
			C1007.8,214.9,1006.4,214.7,1005.3,215.5z"/>
	</g>
	<g>
		<path class="st1" d="M861.4,93.9c-0.7,0.5-0.8,1.5-0.3,2.2c0.5,0.7,1.5,0.8,2.2,0.3c0.7-0.5,0.8-1.5,0.3-2.2
			C863.1,93.5,862.1,93.4,861.4,93.9z"/>
	</g>
	<g>
		<path class="st1" d="M1132.4,310.9c-0.7,0.5-0.8,1.5-0.3,2.2c0.5,0.7,1.5,0.8,2.2,0.3c0.7-0.5,0.8-1.5,0.3-2.2
			C1134,310.5,1133,310.3,1132.4,310.9z"/>
	</g>
	<g>
		<path class="st1" d="M1073.9,217.9c-0.7,0.5-0.8,1.5-0.3,2.2c0.5,0.7,1.5,0.8,2.2,0.3c0.7-0.5,0.8-1.5,0.3-2.2
			C1075.6,217.4,1074.6,217.3,1073.9,217.9z"/>
	</g>
	<g>
		<path class="st1" d="M1114,237.3c-0.7,0.5-0.8,1.5-0.3,2.2c0.5,0.7,1.5,0.8,2.2,0.3c0.7-0.5,0.8-1.5,0.3-2.2
			C1115.7,236.9,1114.7,236.8,1114,237.3z"/>
	</g>
	<g>
		<path class="st1" d="M860.2,136.1c-1.4,1.1-1.6,3.1-0.5,4.4c1.1,1.4,3.1,1.6,4.4,0.5c1.4-1.1,1.6-3.1,0.5-4.4
			C863.5,135.3,861.5,135,860.2,136.1z"/>
	</g>
	<g>
		<path class="st1" d="M883.5,217.1c-0.7,0.5-0.8,1.5-0.3,2.2c0.5,0.7,1.5,0.8,2.2,0.3c0.7-0.5,0.8-1.5,0.3-2.2
			C885.2,216.7,884.2,216.6,883.5,217.1z"/>
	</g>
	<g>
		<path class="st1" d="M1008.6,283.7c-1,0.8-1.2,2.2-0.4,3.2c0.8,1,2.2,1.2,3.2,0.4c1-0.8,1.2-2.2,0.4-3.2
			C1011,283,1009.6,282.9,1008.6,283.7z"/>
	</g>
	<g>
		<path class="st1" d="M771.3,36.6c-0.7,0.5-0.8,1.5-0.3,2.2c0.5,0.7,1.5,0.8,2.2,0.3c0.7-0.5,0.8-1.5,0.3-2.2
			C772.9,36.1,772,36,771.3,36.6z"/>
	</g>
	<g>
		<path class="st1" d="M957.9,165.8c-0.3,0.3-0.4,0.8-0.1,1.1c0.3,0.3,0.8,0.4,1.1,0.1c0.3-0.3,0.4-0.8,0.1-1.1
			C958.7,165.6,958.2,165.5,957.9,165.8z"/>
	</g>
	<g>
		<path class="st1" d="M902,89.8c-0.3,0.3-0.4,0.8-0.1,1.1c0.3,0.3,0.8,0.4,1.1,0.1c0.3-0.3,0.4-0.8,0.1-1.1
			C902.8,89.5,902.3,89.5,902,89.8z"/>
	</g>
	<g>
		<path class="st1" d="M798.5,91c-0.3,0.3-0.4,0.8-0.1,1.1c0.3,0.3,0.8,0.4,1.1,0.1c0.3-0.3,0.4-0.8,0.1-1.1
			C799.4,90.8,798.9,90.8,798.5,91z"/>
	</g>
	<g>
		<path class="st1" d="M859.6,44.8c-0.3,0.3-0.4,0.8-0.1,1.1c0.3,0.3,0.8,0.4,1.1,0.1c0.3-0.3,0.4-0.8,0.1-1.1
			C860.4,44.6,859.9,44.5,859.6,44.8z"/>
	</g>
	<g>
		<path class="st1" d="M939.4,93.6c-0.3,0.3-0.4,0.8-0.1,1.1c0.3,0.3,0.8,0.4,1.1,0.1c0.3-0.3,0.4-0.8,0.1-1.1
			C940.3,93.4,939.8,93.3,939.4,93.6z"/>
	</g>
	<g>
		<path class="st1" d="M1149.2,219.3c-0.3,0.3-0.4,0.8-0.1,1.1c0.3,0.3,0.8,0.4,1.1,0.1c0.3-0.3,0.4-0.8,0.1-1.1
			C1150,219.1,1149.6,219,1149.2,219.3z"/>
	</g>
	<g>
		<path class="st1" d="M1041.1,203.9c-0.3,0.3-0.4,0.8-0.1,1.1c0.3,0.3,0.8,0.4,1.1,0.1c0.3-0.3,0.4-0.8,0.1-1.1
			C1042,203.7,1041.5,203.6,1041.1,203.9z"/>
	</g>
	<g>
		<path class="st1" d="M1032.6,248.2c-0.3,0.3-0.4,0.8-0.1,1.1c0.3,0.3,0.8,0.4,1.1,0.1c0.3-0.3,0.4-0.8,0.1-1.1
			C1033.4,248,1032.9,248,1032.6,248.2z"/>
	</g>
	<g>
		<path class="st1" d="M1100.1,205.4c-0.3,0.3-0.4,0.8-0.1,1.1c0.3,0.3,0.8,0.4,1.1,0.1c0.3-0.3,0.4-0.8,0.1-1.1
			C1100.9,205.2,1100.4,205.2,1100.1,205.4z"/>
	</g>
	<g>
		<path class="st1" d="M1024.8,171c-0.3,0.3-0.4,0.8-0.1,1.1c0.3,0.3,0.8,0.4,1.1,0.1c0.3-0.3,0.4-0.8,0.1-1.1
			C1025.6,170.8,1025.1,170.8,1024.8,171z"/>
	</g>
	<g>
		<path class="st1" d="M1106.2,369.8c-0.3,0.3-0.4,0.8-0.1,1.1c0.3,0.3,0.8,0.4,1.1,0.1c0.3-0.3,0.4-0.8,0.1-1.1
			C1107,369.6,1106.5,369.6,1106.2,369.8z"/>
	</g>
	<g>
		<path class="st1" d="M1092.3,304.8c-0.3,0.3-0.4,0.8-0.1,1.1c0.3,0.3,0.8,0.4,1.1,0.1c0.3-0.3,0.4-0.8,0.1-1.1
			C1093.1,304.6,1092.6,304.6,1092.3,304.8z"/>
	</g>
	<g>
		<path class="st1" d="M1174.8,298.9c-0.3,0.3-0.4,0.8-0.1,1.1c0.3,0.3,0.8,0.4,1.1,0.1c0.3-0.3,0.4-0.8,0.1-1.1
			C1175.6,298.7,1175.2,298.6,1174.8,298.9z"/>
	</g>
	<g>
		<path class="st1" d="M803.1,29.1c-0.3,0.3-0.4,0.8-0.1,1.1c0.3,0.3,0.8,0.4,1.1,0.1c0.3-0.3,0.4-0.8,0.1-1.1
			C803.9,28.9,803.4,28.9,803.1,29.1z"/>
	</g>
	<g>
		<path class="st1" d="M881.8,235.5c-0.3,0.3-0.4,0.8-0.1,1.1c0.3,0.3,0.8,0.4,1.1,0.1c0.3-0.3,0.4-0.8,0.1-1.1
			C882.6,235.3,882.1,235.2,881.8,235.5z"/>
	</g>
	<g>
		<path class="st1" d="M1033.1,345.9c-0.3,0.3-0.4,0.8-0.1,1.1c0.3,0.3,0.8,0.4,1.1,0.1c0.3-0.3,0.4-0.8,0.1-1.1
			C1034,345.7,1033.5,345.7,1033.1,345.9z"/>
	</g>
	<g>
		<path class="st1" d="M942.1,313.3c-0.3,0.3-0.4,0.8-0.1,1.1c0.3,0.3,0.8,0.4,1.1,0.1c0.3-0.3,0.4-0.8,0.1-1.1
			C942.9,313.1,942.4,313,942.1,313.3z"/>
	</g>
	<g>
		<path class="st1" d="M480,43.1c-0.3,0.3-0.4,0.8-0.1,1.1c0.3,0.3,0.8,0.4,1.1,0.1c0.3-0.3,0.4-0.8,0.1-1.1
			C480.9,42.9,480.4,42.9,480,43.1z"/>
	</g>
	<g>
		<path class="st1" d="M544.5,73.2c-0.3,0.3-0.4,0.8-0.1,1.1c0.3,0.3,0.8,0.4,1.1,0.1c0.3-0.3,0.4-0.8,0.1-1.1
			C545.3,73,544.8,72.9,544.5,73.2z"/>
	</g>
	<g>
		<path class="st1" d="M713.2,161.1c-0.4-0.2-0.8-0.1-1.1,0.2c-0.2,0.4-0.1,0.8,0.2,1.1c0.4,0.2,0.8,0.1,1.1-0.2
			C713.6,161.9,713.5,161.4,713.2,161.1z"/>
	</g>
	<g>
		<path class="st1" d="M770.5,161c-0.4-0.2-0.8-0.1-1.1,0.2c-0.2,0.4-0.1,0.8,0.2,1.1c0.4,0.2,0.8,0.1,1.1-0.2
			C770.9,161.7,770.8,161.2,770.5,161z"/>
	</g>
	<g>
		<path class="st1" d="M772,202.6c-0.4-0.2-0.8-0.1-1.1,0.2c-0.2,0.4-0.1,0.8,0.2,1.1c0.4,0.2,0.8,0.1,1.1-0.2
			C772.5,203.3,772.4,202.8,772,202.6z"/>
	</g>
	<g>
		<path class="st1" d="M902.3,287.1c-0.4-0.2-0.8-0.1-1.1,0.2c-0.2,0.4-0.1,0.8,0.2,1.1c0.4,0.2,0.8,0.1,1.1-0.2
			S902.6,287.3,902.3,287.1z"/>
	</g>
	<g>
		<path class="st1" d="M1018.3,318c-1,0.8-1.2,2.3-0.4,3.3c0.8,1,2.3,1.2,3.3,0.4c1-0.8,1.2-2.3,0.4-3.3
			C1020.8,317.3,1019.3,317.2,1018.3,318z"/>
	</g>
	<g>
		<path class="st1" d="M921.8,136c-1,0.8-1.2,2.3-0.4,3.3c0.8,1,2.3,1.2,3.3,0.4c1-0.8,1.2-2.3,0.4-3.3
			C924.3,135.4,922.9,135.2,921.8,136z"/>
	</g>
	<g>
		<path class="st1" d="M1097.3,278.8c-1,0.8-1.2,2.3-0.4,3.3c0.8,1,2.3,1.2,3.3,0.4c1-0.8,1.2-2.3,0.4-3.3
			C1099.8,278.1,1098.3,278,1097.3,278.8z"/>
	</g>
	<g>
		<path class="st1" d="M1112.6,253.5c-1.2,0.5-1.7,1.9-1.1,3.1c0.5,1.2,1.9,1.7,3.1,1.1c1.2-0.5,1.7-1.9,1.1-3.1
			C1115.2,253.4,1113.8,252.9,1112.6,253.5z"/>
	</g>
	<g>
		<path class="st1" d="M817.5,97.4c-1,0.8-1.2,2.3-0.4,3.3c0.8,1,2.3,1.2,3.3,0.4c1-0.8,1.2-2.3,0.4-3.3
			C819.9,96.7,818.5,96.6,817.5,97.4z"/>
	</g>
	<g class="st3">
		<path class="st1" d="M678.4,33.3l58.4,24.1l18.5,49.4l67.1,44.3l-68,30.2l-0.2,0.1L642,133.7l62.9-10.9L677.6,34 M565.9,62
			 M820.4,151l-65.8-43.5l-0.1-0.1L736,58.1l-57.3-23.6l27.2,88.5l0.2,0.5L645.2,134l108.9,46.4L820.4,151z M567.8,59.9 M677.3,32.9
			"/>
	</g>
	<g class="st5">
		<path class="st1" d="M704.7,122.8l50.6-16.3l-0.7,75.7L704.7,122.8z M706.3,123.3l47.4,56.4l0.7-72L706.3,123.3z"/>
	</g>
	<g>
		
			<rect x="687.3" y="54.9" transform="matrix(0.8733 -0.4871 0.4871 0.8733 42.6435 346.5804)" class="st1" width="0.9" height="72.8"/>
	</g>
	<g class="st3">
		<polyline class="st1" points="771.9,38 818.1,98.8 754.8,106.7 754.9,107.6 819.8,99.5 772.6,37.5 		"/>
	</g>
	<g class="st6">
		<path class="st1" d="M567.2,60.7l76.2,72.3l26.2-73.7l0.1-0.3l67.4-1.8l-31.2,66l-0.8-0.4l30.6-64.6L670.4,60l-26.6,74.7
			l-77.3-73.4l-0.1-0.1"/>
	</g>
	<g class="st5">
		<polyline class="st1" points="735.9,58.5 772.5,38.2 772,37.4 736.8,57 		"/>
	</g>
	<g class="st3">
		<path class="st1" d="M568.5,62.3 M565.2,59.5"/>
	</g>
	<g>
		<line class="st1" x1="643.2" y1="134" x2="644.1" y2="133.7"/>
	</g>
	<g class="st7">
		<polyline class="st1" points="669.6,59.1 566.8,60.5 566.8,61.4 670.5,60 		"/>
		<polyline class="st1" points="736.1,58.1 736.2,58.2 818.5,99.5 820.9,151.6 861.9,139.1 884.1,218.7 884.3,218.8 1010.5,258.9 
			1009.5,286.1 1057.9,267.3 1099.1,280.7 1099.4,279.9 1057.9,266.4 1057.7,266.4 1010.5,284.8 1011.4,258.2 884.8,218 862.6,138 
			821.8,150.4 819.4,98.9 819.1,98.8 736.6,57.4 		"/>
	</g>
	<g class="st3">
		<polygon class="st1" points="1058.1,267.2 1115.3,238.6 1114.9,237.8 1057.7,266.4 		"/>
	</g>
	<g class="st2">
		<polyline class="st1" points="1113.6,255.1 1113.5,255.1 1057.6,266.4 1057.5,266.6 1019.2,319.5 922.5,292.9 968,221.5 
			967.2,221 921.1,293.5 1019.6,320.6 1058.1,267.2 1113.7,256 		"/>
	</g>
	<g class="st3">
		<polygon class="st1" points="817.3,189.7 912,189.4 912.1,189 923.7,137.9 922.9,137.7 911.3,188.5 817.3,188.8 		"/>
	</g>
	<g class="st5">
		<polygon class="st1" points="921.4,293.7 1009.7,285.9 1018.9,320.2 1019.8,319.9 1010.4,285 922.2,292.7 912.1,188.6 
			820.9,150.4 816.9,188.7 754.2,180.5 754,181.4 817.7,189.7 821.7,151.7 911.2,189.3 		"/>
	</g>
	<g class="st3">
		<polygon class="st1" points="921.4,293.4 922.2,293 884.8,218 884.6,217.9 817.5,188.8 817.1,189.6 884.1,218.7 		"/>
	</g>
	<g class="st3">
		<polygon class="st1" points="1010.9,259 1057.8,267.3 1099.4,280.8 1114.1,255.6 1115.6,238.3 1114.7,238.2 1113.2,255.4 
			1099,279.7 1058,266.4 1011,258.1 		"/>
	</g>
	<g class="st3">
		<polygon class="st1" points="884.8,218.6 911.3,188.9 967.4,221.6 967.8,220.8 911.1,187.8 884.1,218 		"/>
	</g>
	<g>
		
			<rect x="988.8" y="211.3" transform="matrix(0.6526 -0.7577 0.7577 0.6526 161.8987 832.9088)" class="st1" width="0.9" height="57.2"/>
	</g>
	<g class="st3">
		<path class="st1" d="M923,138.3l-60.8,0.7l-0.2,0l-45.2-41l106.5,39.4l0.2,0L968,221l-0.8,0.4L923,138.3z M820.9,100.4l41.5,37.7
			l58.4-0.7L820.9,100.4z"/>
	</g>
	<g class="st2">
		<polyline class="st1" points="1115.2,237.8 1115.1,237.8 1010.9,258.1 1011,259 1115.1,238.7 		"/>
	</g>
	<g class="st4">
		<polygon class="st1" points="967.6,221.2 911.2,188.3 921.8,293.2 		"/>
	</g>
</g>
</svg>
