<svg xmlns="http://www.w3.org/2000/svg" width="56" height="52" viewBox="0 0 56 52">
    <path fill="#9A81A3" fill-rule="evenodd" d="M26.845 48.64V29.85a1.215 1.215 0 0 1 1.261-1.161 1.228 1.228 0 0 1 1.07 1.161v18.79l6.96-6.95c.175-.163.389-.283.623-.325.168-.03.211-.016.267-.016.29.026.368.069.51.149.565.32.762 1.156.362 1.699-.048.064-.061.077-.117.136l-7.958 7.946c-.954.94-2.634.983-3.632 0l-7.957-7.946c-.197-.213-.227-.296-.28-.45-.237-.7.373-1.55 1.125-1.537.299.005.582.136.803.341l6.963 6.953zm-5.392-11.286H10.47a10.631 10.631 0 0 1-7.363-3.023C.73 31.983-.412 28.457.135 25.168c.741-4.468 4.659-8.236 9.299-8.692.008-.069.016-.138.026-.205.71-5.427 3.907-10.428 8.526-13.363A18.794 18.794 0 0 1 27.893 0h.176c5.813.027 11.568 2.932 15.024 7.637a18.763 18.763 0 0 1 3.486 8.804s-.176.014.234.061c4.174.52 7.865 3.718 8.896 7.838 1.184 4.718-1.336 10.114-5.968 12.14-1.317.576-2.755.871-4.192.874H34.567c-.314-.05-.416-.03-.685-.224-.579-.418-.621-1.433 0-1.883.267-.194.37-.173.685-.22 3.678 0 7.355.007 11.035 0 3.142-.033 6.174-2.003 7.435-4.927 1.374-3.182.47-7.198-2.306-9.488a8.206 8.206 0 0 0-5.208-1.86l-.347-.05c-.325-.157-.621-.37-.747-.697-.085-.221-.08-.456-.099-.695-.504-5.958-4.496-11.47-10.125-13.773-4.592-1.88-10.056-1.526-14.395.988-4.606 2.67-7.763 7.701-8.13 13.035l-.006.101-.075.344c-.179.314-.41.593-.747.697-.26.08-.525.048-.794.061-3.971.2-7.56 3.614-7.72 7.811-.131 3.422 2.138 6.807 5.389 7.973.88.317 1.816.474 2.754.477h10.98c.314.05.415.029.685.22.578.421.621 1.433 0 1.883-.267.195-.371.173-.686.224l-.007.003z"/>
</svg>
