<svg xmlns="http://www.w3.org/2000/svg" width="34" height="43" viewBox="0 0 34 43">
    <g fill="#9A81A3" fill-rule="evenodd">
        <path d="M16.76 34.191c.815 0 1.44-.625 1.44-1.441v-3.362c0-.816-.625-1.441-1.44-1.441-.817 0-1.442.625-1.442 1.44v3.363a1.417 1.417 0 0 0 1.441 1.441z"/>
        <path stroke="#FFF" d="M30.206 16.904h-1.442V12.92c0-6.531-5.28-11.862-11.764-11.862-6.484 0-11.765 5.33-11.765 11.862v3.985H3.794a2.378 2.378 0 0 0-2.4 2.401v20.65c0 1.343 1.056 2.4 2.4 2.4h26.41c1.344 0 2.4-1.057 2.4-2.4l.002-20.65c0-1.345-1.057-2.4-2.4-2.4zM8.116 12.92c0-4.947 3.987-8.98 8.884-8.98s8.884 4.033 8.884 8.98v3.985H8.118l-.002-3.985zm21.608 26.554H4.274l.002-19.688h25.45l-.002 19.688z"/>
    </g>
</svg>
