<svg xmlns="http://www.w3.org/2000/svg" width="57" height="54" viewBox="0 0 57 54">
    <g fill="#9A81A3" fill-rule="evenodd">
        <path d="M26.953 43.244c-9.197 0-16.682-7.482-16.682-16.682 0-9.198 7.482-16.682 16.682-16.682 9.198 0 16.683 7.484 16.683 16.682 0 9.2-7.482 16.682-16.683 16.682zm0-31.862c-8.37 0-15.18 6.81-15.18 15.18 0 8.37 6.81 15.18 15.18 15.18 8.37 0 15.18-6.81 15.18-15.18 0-8.37-6.81-15.18-15.18-15.18z"/>
        <path d="M26.953 39.785c-7.289 0-13.22-5.931-13.22-13.22 0-7.289 5.93-13.22 13.22-13.22 7.29 0 13.22 5.932 13.22 13.22 0 7.29-5.928 13.22-13.22 13.22zm0-24.94c-6.461 0-11.717 5.258-11.717 11.718 0 6.461 5.256 11.717 11.717 11.717 6.462 0 11.718-5.255 11.718-11.717 0-6.46-5.256-11.718-11.718-11.718zM29.447 10.631H28.07v-6.99c0-.38.308-.69.69-.69h4.144V4.33h-3.457v6.302zM28.07 47.744h1.377v-5.351h-1.378zM50.741 36.983h-1.377v-3.457h-7.558v-1.378h8.246c.379 0 .69.308.69.69v4.145zM24.33 10.631h-1.377v-3.42H19.7l-.002-1.378h3.944c.38 0 .69.309.69.69v4.108zM40.477 18.825h7.607v-1.377h-7.607zM42.369 28.813h8.935v-1.377H42.37z"/>
        <path d="M35.395 6.65c-.203 0-.413-.02-.621-.061a3.139 3.139 0 0 1-2.024-1.353 3.157 3.157 0 0 1-.475-2.388A3.139 3.139 0 0 1 33.63.824 3.161 3.161 0 0 1 36.017.35a3.184 3.184 0 0 1 2.498 3.74 3.189 3.189 0 0 1-3.12 2.56zm-.005-4.984c-.355 0-.697.103-.996.306a1.8 1.8 0 0 0-.499 2.5c.27.4.676.673 1.148.769a1.81 1.81 0 0 0 2.119-1.417 1.797 1.797 0 0 0-.27-1.353 1.788 1.788 0 0 0-1.147-.768 1.73 1.73 0 0 0-.355-.037zM28.757 53.039a3.184 3.184 0 0 1-3.181-3.181 3.184 3.184 0 0 1 3.18-3.18 3.182 3.182 0 0 1 0 6.36zm0-4.984c-.994 0-1.803.807-1.803 1.803 0 .993.807 1.803 1.803 1.803.993 0 1.803-.807 1.803-1.803 0-.993-.81-1.803-1.803-1.803zM50.054 42.212a3.183 3.183 0 0 1-3.181-3.178 3.184 3.184 0 0 1 3.18-3.181 3.184 3.184 0 0 1 3.181 3.18 3.183 3.183 0 0 1-3.18 3.179zm0-4.982c-.994 0-1.804.808-1.804 1.804 0 .993.808 1.803 1.804 1.803.993 0 1.803-.808 1.803-1.803 0-.996-.81-1.804-1.803-1.804zM17.703 9.704a3.183 3.183 0 0 1-3.179-3.181 3.181 3.181 0 0 1 3.179-3.178 3.183 3.183 0 0 1 3.18 3.178 3.184 3.184 0 0 1-3.18 3.18zm0-4.984a1.803 1.803 0 1 0 1.803 1.803c0-.993-.81-1.803-1.803-1.803zM5.9 20.6a3.184 3.184 0 0 1-3.182-3.181A3.184 3.184 0 0 1 5.9 14.238a3.184 3.184 0 0 1 3.181 3.18A3.184 3.184 0 0 1 5.9 20.6zm0-4.985c-.994 0-1.804.808-1.804 1.804 0 .993.807 1.803 1.803 1.803.994 0 1.803-.807 1.803-1.803 0-.994-.81-1.804-1.803-1.804zM50.054 21.316a3.184 3.184 0 0 1-3.181-3.18 3.184 3.184 0 0 1 3.18-3.181 3.184 3.184 0 0 1 3.181 3.18 3.184 3.184 0 0 1-3.18 3.181zm0-4.984c-.994 0-1.804.808-1.804 1.803 0 .994.808 1.804 1.804 1.804.993 0 1.803-.808 1.803-1.804 0-.993-.81-1.803-1.803-1.803zM53.795 31.304a3.184 3.184 0 0 1-3.18-3.18 3.184 3.184 0 0 1 3.18-3.181 3.182 3.182 0 0 1 0 6.361zm0-4.984c-.994 0-1.803.808-1.803 1.803 0 .994.807 1.804 1.803 1.804.993 0 1.803-.808 1.803-1.804 0-.993-.81-1.803-1.803-1.803zM5.9 30.066h5.473V28.69H5.899z"/>
        <path d="M11.37 23.868H5.899a.69.69 0 0 1-.69-.69v-3.724h1.377v3.034h4.784v1.38zM3.406 32.557a3.183 3.183 0 0 1-3.178-3.178 3.183 3.183 0 0 1 3.178-3.181 3.184 3.184 0 0 1 3.18 3.18 3.183 3.183 0 0 1-3.18 3.179zm0-4.982a1.803 1.803 0 1 0 .004 3.606 1.803 1.803 0 0 0-.004-3.606zM22.268 50.458h-4.145V49.08h3.458v-7.558h1.377v8.246a.692.692 0 0 1-.69.69z"/>
        <path d="M15.63 53.122a3.184 3.184 0 0 1-3.18-3.18 3.184 3.184 0 0 1 3.18-3.181 3.184 3.184 0 0 1 3.18 3.18 3.184 3.184 0 0 1-3.18 3.181zm0-4.984c-.993 0-1.803.808-1.803 1.803 0 .994.807 1.804 1.803 1.804.993 0 1.803-.808 1.803-1.804 0-.995-.81-1.803-1.803-1.803zM28.07 20.695h1.377v-6.602h-1.378zM28.07 39.033h1.377V25.97h-1.378z"/>
        <path d="M36.144 30.066H23.778v-1.378h11.679V18.135h1.377v11.24a.692.692 0 0 1-.69.69zM14.806 30.066h3.88V28.69h-3.88zM15.211 23.868H26.82v-1.377H15.21z"/>
        <path d="M28.757 26.367a3.187 3.187 0 0 1-3.12-3.802 3.157 3.157 0 0 1 1.353-2.024 3.157 3.157 0 0 1 2.388-.475 3.139 3.139 0 0 1 2.024 1.353c.472.707.64 1.554.474 2.388a3.184 3.184 0 0 1-3.12 2.56zm-.005-4.984a1.81 1.81 0 0 0-1.764 1.453 1.802 1.802 0 1 0 3.266-.65 1.8 1.8 0 0 0-1.502-.804zM21.157 32.559a3.184 3.184 0 0 1-3.127-3.805 3.157 3.157 0 0 1 1.353-2.023 3.157 3.157 0 0 1 2.388-.475 3.139 3.139 0 0 1 2.024 1.353c.472.707.64 1.554.474 2.388a3.139 3.139 0 0 1-1.353 2.024 3.147 3.147 0 0 1-1.759.538zm-.012-4.987c-.353 0-.698.103-.996.306a1.797 1.797 0 0 0-.5 2.5 1.797 1.797 0 0 0 2.5.5 1.8 1.8 0 0 0 .5-2.5 1.81 1.81 0 0 0-1.504-.806z"/>
    </g>
</svg>
