<svg xmlns="http://www.w3.org/2000/svg" width="38" height="52" viewBox="0 0 38 52">
    <g fill="#9A81A3" fill-rule="evenodd">
        <path d="M27.214 6.77v-.822a2.466 2.466 0 0 0-2.467-2.468h-1.725A4.11 4.11 0 0 0 19 .2a4.11 4.11 0 0 0-4.022 3.29h-1.725a2.466 2.466 0 0 0-2.467 2.468v.822H.094v44.37h37.802V6.77H27.214zm-.672 5.757h5.607v32.867H5.85V12.527h20.691zm-14.111-6.57c0-.45.37-.822.822-.822h3.29v-.822a2.466 2.466 0 0 1 2.467-2.467 2.465 2.465 0 0 1 2.467 2.467v.822h3.29c.451 0 .823.371.823.823v4.934H12.43V5.958zm23.83 43.55H1.739V8.414h9.037v2.467h-6.57V47.04h29.588V10.882h-6.57V8.415h9.037v41.091z"/>
        <path d="M18.177 5.135h1.645V3.49h-1.645zM8.318 22.386h6.57v-6.57h-6.57v6.57zm1.645-4.924h3.29v3.29h-3.29v-3.29zM8.318 32.245h6.57v-6.57h-6.57v6.57zm1.645-4.924h3.29v3.29h-3.29v-3.29zM8.318 42.114h6.57v-6.57h-6.57v6.57zm1.645-4.934h3.29v3.29h-3.29v-3.29zM17.355 19.928h12.327v-1.644H17.355zM17.355 29.788h12.327v-1.645H17.355zM17.355 39.647h12.327v-1.645H17.355z"/>
    </g>
</svg>
