<svg xmlns="http://www.w3.org/2000/svg" width="45" height="42" viewBox="0 0 45 42">
    <path fill="#9A81A3" fill-rule="evenodd" stroke="#FFF" stroke-width=".5" d="M42.257 5.376a2.877 2.877 0 0 0-1.818-3.469l-2.143-.746a2.882 2.882 0 0 0-3.667 1.768l-9.25 26.58a1.02 1.02 0 0 0 .044.773c.009.016.024.026.033.043l.89 4.997c-.902 1.759-2.356 2.942-3.099 3.156-.001-.266.055-.666.088-.913.068-.498.13-.967.072-1.4a1.01 1.01 0 0 0-.464-.718c-.252-.16-.562-.2-.846-.11-.918.29-1.54 1.112-2.144 1.906-.289.384-.83 1.094-1.063 1.156-.21-.247-.144-1.413-.116-1.909.02-.37.04-.717.026-1.017a1.013 1.013 0 0 0-1.582-.787c-.591.4-1.262 1.008-2.04 1.712-1.576 1.427-3.96 3.58-5.267 3.211-.492-.14-.853-.698-1.108-1.306 2.251-1.558 4.76-4.811 4.922-7.401.072-1.137-.3-2.097-1.072-2.78a1.016 1.016 0 0 0-.46-.233c-1.295-.27-2.5.145-3.486 1.212-1.875 2.025-2.566 6.005-2.257 8.3a33.037 33.037 0 0 1-4.786 2.31 1.013 1.013 0 1 0 .702 1.9 34.493 34.493 0 0 0 4.706-2.228c.558 1.173 1.327 1.9 2.289 2.173 2.386.674 5.043-1.728 7.178-3.657l.18-.163c.033.748.185 1.486.666 2.017.358.397.847.623 1.416.65 1.072.05 1.811-.712 2.448-1.518.051.404.188.78.48 1.098.251.273.71.592 1.49.55 1.59-.075 3.6-1.852 4.808-4.046.026-.018.055-.026.079-.048l4.244-3.683a1.01 1.01 0 0 0 .616-.614L41.584 7.38c.276-.034.565-.028.742.113.25.198.332.678.34.96l-2.183 6.271a1.013 1.013 0 0 0 1.914.665l2.236-6.424a.964.964 0 0 0 .055-.267c.01-.185.086-1.83-1.085-2.778a2.684 2.684 0 0 0-1.346-.545zM10.193 30.477c.478-.517.907-.642 1.248-.642.016 0 .033 0 .05.002.132.186.241.472.212.938-.1 1.59-1.69 3.867-3.3 5.271.047-1.827.66-4.348 1.79-5.569zm27.437-27.4l2.142.746c.445.155.68.64.525 1.082l-.108.31-3.752-1.308.11-.31a.857.857 0 0 1 1.083-.52zm-9.392 30.567c-.052-.027-.091-.063-.147-.082l-.387-2.173 2.232.778-1.698 1.477zm3.143-3.12l-3.754-1.307L35.77 5.822l3.752 1.308-8.142 23.393z"/>
</svg>
