<svg xmlns="http://www.w3.org/2000/svg" width="56" height="57" viewBox="0 0 56 57">
    <path fill="#9A81A3" fill-rule="evenodd" stroke="#F6F5F7" stroke-width=".5" d="M28.85 8.53v1.833L28 9.906l-.85.457V8.53L14.075 1 1 8.53v15.126l13.075 7.53 1.504-.852v1.112l1.307.722-1.96 1.112v15.126L28 56l13.075-7.53V33.344l-1.961-1.112 1.307-.722v-1.112l1.504.852L55 23.72V8.53L41.925 1 28.85 8.53zm23.535 13.62l-10.46 6.022-1.504-.851V17.108l-8.956-5.172v-1.834l10.46-6.023 10.46 6.023V22.15zm-20.92 0v-8.71l7.648 4.387v8.708l-7.648-4.386zm-27.85 0V10.035l10.46-6.023 10.46 6.023v1.834l-8.956 5.238v10.216l-1.504.851-10.46-6.026zm13.271-4.323l7.648-4.387v8.71l-7.648 4.452v-8.775zM38.46 46.963L28 52.986l-10.46-6.023V34.85l1.961-1.112L28 38.648l8.498-4.91 1.962 1.112v12.113zM28 37.142l-7.191-4.19 7.19-4.189 7.192 4.19L28 37.142zm11.113-6.417l-1.307.721L28 25.75l-9.806 5.696-1.308-.721v-1.113l10.263-5.959V11.867l.85-.457.851.457v11.786l10.263 5.96v1.112z"/>
</svg>
