<svg xmlns="http://www.w3.org/2000/svg" width="41" height="36" viewBox="0 0 41 36">
    <g fill="#9A81A3" fill-rule="evenodd">
        <path d="M5.093 9.88L.769 6.172a1.316 1.316 0 1 1 1.716-2L4.72 6.09 9.024.61a1.318 1.318 0 1 1 2.072 1.63L5.093 9.88zM39.112 7.43H17.088a1.318 1.318 0 0 1 0-2.637h22.024a1.318 1.318 0 0 1 0 2.636zM39.112 20.079H17.088a1.318 1.318 0 0 1 0-2.636h22.024a1.318 1.318 0 0 1 0 2.636zM39.112 32.731H17.088a1.318 1.318 0 0 1 0-2.635h22.024a1.318 1.318 0 0 1 0 2.635zM4.908 21.674a3.994 3.994 0 0 1-3.99-3.99c0-2.201 1.789-3.99 3.99-3.99 2.2 0 3.99 1.789 3.99 3.99a3.997 3.997 0 0 1-3.99 3.99zm0-5.343a1.356 1.356 0 0 0 0 2.709c.746 0 1.354-.606 1.354-1.354a1.357 1.357 0 0 0-1.354-1.355zM4.908 36.012a3.994 3.994 0 0 1-3.99-3.99c0-2.201 1.789-3.99 3.99-3.99 2.2 0 3.99 1.789 3.99 3.99a3.997 3.997 0 0 1-3.99 3.99zm0-5.345a1.356 1.356 0 0 0 0 2.709c.746 0 1.354-.606 1.354-1.354a1.359 1.359 0 0 0-1.354-1.355z"/>
    </g>
</svg>
