<?xml version="1.0" encoding="UTF-8"?>
<svg width="216px" height="30px" viewBox="0 0 216 30" version="1.1" xmlns="http://www.w3.org/2000/svg" xmlns:xlink="http://www.w3.org/1999/xlink">
    <!-- Generator: Sketch 50.2 (55047) - http://www.bohemiancoding.com/sketch -->
    <title>LOGO</title>
    <desc>Created with Sketch.</desc>
    <defs>
        <polygon id="path-1" points="0 29.8783 215.113 29.8783 215.113 0.0003 0 0.0003"></polygon>
    </defs>
    <g id="Home" stroke="none" stroke-width="1" fill="none" fill-rule="evenodd">
        <g id="Mobile-Home" transform="translate(-52.000000, -166.000000)">
            <g id="LOGO" transform="translate(52.000000, 166.000000)">
                <path d="M77.546,27.5739 C74.317,27.5739 72.125,26.6799 70.974,24.8929 C69.821,23.1059 69.246,20.1669 69.246,16.0759 C69.246,11.9859 69.827,9.0739 70.99,7.3409 C72.152,5.6079 74.338,4.7409 77.546,4.7409 C79.462,4.7409 81.571,5.0099 83.876,5.5479 L83.746,8.4549 C81.809,8.1109 79.871,7.9379 77.934,7.9379 C75.995,7.9379 74.682,8.5139 73.993,9.6659 C73.304,10.8179 72.96,12.9819 72.96,16.1569 C72.96,19.3329 73.293,21.4969 73.961,22.6489 C74.628,23.8009 75.931,24.3769 77.869,24.3769 C79.807,24.3769 81.766,24.2149 83.746,23.8919 L83.844,26.8629 C81.626,27.3369 79.526,27.5739 77.546,27.5739" id="Fill-1" fill="#FFFFFF"></path>
                <path d="M90.338,27.2184 L86.818,27.2184 L86.818,4.3534 L90.338,4.3534 L90.338,11.9104 C91.932,11.1144 93.406,10.7154 94.763,10.7154 C96.915,10.7154 98.385,11.3234 99.171,12.5404 C99.957,13.7564 100.35,15.7644 100.35,18.5634 L100.35,27.2184 L96.83,27.2184 L96.83,18.6594 C96.83,16.9164 96.647,15.6784 96.28,14.9464 C95.914,14.2144 95.14,13.8474 93.955,13.8474 C92.922,13.8474 91.889,14.0204 90.856,14.3644 L90.338,14.5584 L90.338,27.2184 Z" id="Fill-3" fill="#FFFFFF"></path>
                <path d="M108.8233,20.049 C107.3383,20.178 106.5943,20.986 106.5943,22.471 C106.5943,23.957 107.2513,24.699 108.5643,24.699 C109.6413,24.699 110.7823,24.528 111.9883,24.183 L112.5693,23.989 L112.5693,19.694 L108.8233,20.049 Z M116.0573,16.044 L116.0573,23.407 C116.0793,23.882 116.2033,24.231 116.4283,24.457 C116.6553,24.683 117.0053,24.829 117.4783,24.893 L117.3823,27.574 C115.5293,27.574 114.0973,27.175 113.0863,26.379 C111.3633,27.175 109.6313,27.574 107.8863,27.574 C104.6783,27.574 103.0743,25.862 103.0743,22.439 C103.0743,20.803 103.5113,19.618 104.3833,18.886 C105.2553,18.154 106.5943,17.713 108.4033,17.562 L112.5693,17.207 L112.5693,16.044 C112.5693,15.183 112.3813,14.58 112.0043,14.236 C111.6273,13.891 111.0733,13.719 110.3413,13.719 C108.9633,13.719 107.2413,13.805 105.1743,13.977 L104.1403,14.042 L104.0113,11.555 C106.3573,10.995 108.5163,10.716 110.4863,10.716 C112.4563,10.716 113.8783,11.141 114.7503,11.991 C115.6213,12.842 116.0573,14.193 116.0573,16.044 Z" id="Fill-5" fill="#FFFFFF"></path>
                <mask id="mask-2" fill="white">
                    <use xlink:href="#path-1"></use>
                </mask>
                <g id="Clip-8"></g>
                <path d="M120.172,27.2183 L123.692,27.2183 L123.692,11.0703 L120.172,11.0703 L120.172,27.2183 Z M120.172,8.3253 L123.692,8.3253 L123.692,4.6113 L120.172,4.6113 L120.172,8.3253 Z" id="Fill-7" fill="#FFFFFF" mask="url(#mask-2)"></path>
                <path d="M131.0616,27.2184 L127.5416,27.2184 L127.5416,11.0704 L131.0296,11.0704 L131.0296,12.0724 C132.6006,11.1674 134.0866,10.7154 135.4866,10.7154 C137.6386,10.7154 139.1086,11.3234 139.8946,12.5404 C140.6806,13.7564 141.0736,15.7644 141.0736,18.5634 L141.0736,27.2184 L137.5856,27.2184 L137.5856,18.6594 C137.5856,16.9164 137.3966,15.6784 137.0206,14.9464 C136.6436,14.2144 135.8736,13.8474 134.7106,13.8474 C133.6136,13.8474 132.5586,14.0634 131.5456,14.4934 L131.0616,14.6874 L131.0616,27.2184 Z" id="Fill-9" fill="#FFFFFF" mask="url(#mask-2)"></path>
                <polygon id="Fill-10" fill="#FFFFFF" mask="url(#mask-2)" points="145.169 27.2184 145.169 5.0954 158.895 5.0954 158.895 8.2284 148.753 8.2284 148.753 15.6884 157.183 15.6884 157.183 18.8214 148.753 18.8214 148.753 27.2184"></polygon>
                <path d="M160.7481,27.2184 L160.7481,11.0704 L164.2351,11.0704 L164.2351,13.0084 C166.0651,11.8244 167.8951,11.0594 169.7261,10.7154 L169.7261,14.2354 C167.8741,14.6014 166.2911,15.0754 164.9781,15.6564 L164.2681,15.9474 L164.2681,27.2184 L160.7481,27.2184 Z" id="Fill-11" fill="#FFFFFF" mask="url(#mask-2)"></path>
                <path d="M175.7901,23.3107 C176.2851,24.1717 177.2541,24.6027 178.6971,24.6027 C180.1401,24.6027 181.1081,24.1717 181.6031,23.3107 C182.0991,22.4497 182.3471,21.0397 182.3471,19.0797 C182.3471,17.1207 182.0831,15.7317 181.5561,14.9137 C181.0271,14.0957 180.0741,13.6867 178.6971,13.6867 C177.3191,13.6867 176.3661,14.0957 175.8391,14.9137 C175.3111,15.7317 175.0481,17.1207 175.0481,19.0797 C175.0481,21.0397 175.2951,22.4497 175.7901,23.3107 M173.1581,12.8147 C174.2671,11.4147 176.1131,10.7157 178.6971,10.7157 C181.2801,10.7157 183.1271,11.4147 184.2351,12.8147 C185.3451,14.2147 185.8991,16.3137 185.8991,19.1117 C185.8991,21.9117 185.3601,24.0207 184.2841,25.4417 C183.2071,26.8627 181.3461,27.5737 178.6971,27.5737 C176.0491,27.5737 174.1861,26.8627 173.1101,25.4417 C172.0331,24.0207 171.4951,21.9117 171.4951,19.1117 C171.4951,16.3137 172.0491,14.2147 173.1581,12.8147" id="Fill-12" fill="#FFFFFF" mask="url(#mask-2)"></path>
                <path d="M192.6231,27.2184 L189.1031,27.2184 L189.1031,11.0704 L192.5911,11.0704 L192.5911,12.0724 C194.1621,11.1674 195.6481,10.7154 197.0481,10.7154 C199.2001,10.7154 200.6701,11.3234 201.4561,12.5404 C202.2421,13.7564 202.6351,15.7644 202.6351,18.5634 L202.6351,27.2184 L199.1471,27.2184 L199.1471,18.6594 C199.1471,16.9164 198.9581,15.6784 198.5821,14.9464 C198.2051,14.2144 197.4351,13.8474 196.2721,13.8474 C195.1751,13.8474 194.1201,14.0634 193.1071,14.4934 L192.6231,14.6874 L192.6231,27.2184 Z" id="Fill-13" fill="#FFFFFF" mask="url(#mask-2)"></path>
                <path d="M214.9844,14.0739 L210.5274,14.0739 L210.5274,21.1789 C210.5274,22.4929 210.6244,23.3649 210.8184,23.7949 C211.0114,24.2259 211.5064,24.4409 212.3034,24.4409 L214.9524,24.3439 L215.1134,27.1539 C213.6714,27.4329 212.5724,27.5739 211.8194,27.5739 C209.9894,27.5739 208.7354,27.1539 208.0564,26.3139 C207.3794,25.4739 207.0394,23.8919 207.0394,21.5669 L207.0394,14.0739 L204.9724,14.0739 L204.9724,11.0709 L207.0394,11.0709 L207.0394,6.3879 L210.5274,6.3879 L210.5274,11.0709 L214.9844,11.0709 L214.9844,14.0739 Z" id="Fill-14" fill="#FFFFFF" mask="url(#mask-2)"></path>
                <path d="M41.5567,29.8781 L32.3807,29.8781 C31.6027,29.8781 30.9717,29.2471 30.9717,28.4691 C30.9717,27.6901 31.6027,27.0601 32.3807,27.0601 L41.5567,27.0601 C45.1317,27.0601 48.0397,24.1511 48.0397,20.5761 C48.0397,17.6081 46.0297,15.0261 43.1497,14.2971 C41.7557,13.9351 40.8007,12.6871 40.8177,11.2591 C40.8387,9.0561 39.9297,6.8611 38.3247,5.2391 C36.7787,3.6781 34.7227,2.8181 32.5367,2.8181 C28.7537,2.8181 26.2487,5.1371 25.1647,7.3071 C24.3857,8.8371 22.5157,9.4461 20.9947,8.6731 C19.7307,8.0421 18.1707,8.1101 16.9317,8.8541 C15.5037,9.7121 14.7797,11.1911 14.7797,13.2481 C14.7797,14.0271 14.1487,14.6581 13.3697,14.6581 C12.5907,14.6581 11.9597,14.0271 11.9597,13.2481 C11.9597,9.3661 13.8747,7.4021 15.4807,6.4381 C17.5377,5.2011 20.1367,5.0941 22.2627,6.1561 C22.4107,6.2301 22.5787,6.1751 22.6497,6.0371 C24.1037,3.1241 27.4697,0.0001 32.5357,0.0001 C35.4807,0.0001 38.2467,1.1561 40.3277,3.2561 C42.4577,5.4081 43.6637,8.3361 43.6357,11.2891 C43.6337,11.4201 43.7227,11.5341 43.8497,11.5671 C47.9727,12.6111 50.8587,16.3171 50.8587,20.5761 C50.8587,25.7051 46.6857,29.8781 41.5567,29.8781" id="Fill-15" fill="#B8A3C4" mask="url(#mask-2)"></path>
                <path d="M23.3555,28.4118 C23.3555,27.6478 22.7485,27.0238 21.9865,27.0018 L18.0405,27.0018 L14.1445,21.0998 C13.8845,20.7018 13.4415,20.4618 12.9655,20.4618 L9.3125,20.4618 C8.6145,18.2158 6.3815,16.8148 4.0565,17.1648 C1.7305,17.5128 0.0065,19.5078 0.0005,21.8598 C-0.0065,24.2228 1.7155,26.2338 4.0515,26.5858 C6.3855,26.9378 8.6275,25.5288 9.3195,23.2688 L9.3175,23.2718 L12.2045,23.2718 L16.0885,29.1838 C16.3485,29.5808 16.7935,29.8208 17.2665,29.8208 L21.9465,29.8208 C22.7255,29.8208 23.3555,29.1888 23.3555,28.4118 Z M3.3815,20.4788 C3.9395,19.9218 4.7785,19.7568 5.5045,20.0588 C6.2315,20.3608 6.7055,21.0718 6.7035,21.8598 C6.6985,22.9328 5.8295,23.7998 4.7585,23.7998 C3.6865,23.7958 2.8185,22.9258 2.8185,21.8558 C2.8165,21.3408 3.0185,20.8448 3.3815,20.4788 Z" id="Fill-16" fill="#FFFFFF" mask="url(#mask-2)"></path>
                <path d="M25.8135,28.4113 C25.8135,29.1893 26.4445,29.8203 27.2225,29.8203 C28.0015,29.8203 28.6315,29.1893 28.6315,28.4113 C28.6315,27.6333 28.0015,27.0023 27.2225,27.0023 C26.4445,27.0023 25.8135,27.6333 25.8135,28.4113" id="Fill-17" fill="#FFFFFF" mask="url(#mask-2)"></path>
            </g>
        </g>
    </g>
</svg>