<?xml version="1.0" encoding="UTF-8"?>
<svg width="716px" height="100px" viewBox="0 0 716 100" version="1.1" xmlns="http://www.w3.org/2000/svg" xmlns:xlink="http://www.w3.org/1999/xlink">
    <!-- Generator: Sketch 52.2 (67145) - http://www.bohemiancoding.com/sketch -->
    <title>CF_Purple-transparent</title>
    <desc>Created with Sketch.</desc>
    <g id="Page-1" stroke="none" stroke-width="1" fill="none" fill-rule="evenodd">
        <g id="CF_Purple-transparent">
            <path d="M258.302,91.622 C247.579,91.622 240.302,88.655 236.479,82.722 C232.653,76.787 230.743,67.029 230.743,53.446 C230.743,39.864 232.673,30.194 236.534,24.438 C240.393,18.684 247.65,15.804 258.302,15.804 C264.665,15.804 271.669,16.699 279.321,18.486 L278.89,28.138 C272.457,26.994 266.023,26.421 259.59,26.421 C253.153,26.421 248.792,28.335 246.506,32.158 C244.216,35.984 243.075,43.169 243.075,53.713 C243.075,64.259 244.18,71.446 246.398,75.269 C248.613,79.093 252.939,81.006 259.376,81.006 C265.809,81.006 272.314,80.47 278.89,79.397 L279.215,89.262 C271.85,90.835 264.879,91.622 258.302,91.622" id="Fill-1" fill="#FFFFFE"></path>
            <path d="M300.778,90.443 L289.092,90.443 L289.092,14.519 L300.778,14.519 L300.778,39.612 C306.07,36.967 310.967,35.645 315.47,35.645 C322.617,35.645 327.498,37.664 330.108,41.703 C332.719,45.742 334.022,52.409 334.022,61.702 L334.022,90.443 L322.336,90.443 L322.336,62.024 C322.336,56.234 321.725,52.123 320.51,49.692 C319.294,47.263 316.722,46.045 312.789,46.045 C309.358,46.045 305.927,46.619 302.497,47.762 L300.778,48.405 L300.778,90.443" id="Fill-2" fill="#FFFFFE"></path>
            <path d="M362.159,66.636 C357.226,67.065 354.759,69.746 354.759,74.678 C354.759,79.612 356.938,82.078 361.3,82.078 C364.876,82.078 368.664,81.507 372.668,80.363 L374.597,79.719 L374.597,65.456 L362.159,66.636 Z M386.18,53.338 L386.18,77.788 C386.252,79.363 386.664,80.523 387.413,81.274 C388.165,82.025 389.326,82.508 390.898,82.722 L390.577,91.622 C384.427,91.622 379.673,90.3 376.313,87.654 C370.593,90.3 364.841,91.622 359.049,91.622 C348.396,91.622 343.069,85.939 343.069,74.572 C343.069,69.14 344.518,65.206 347.414,62.775 C350.31,60.346 354.759,58.88 360.764,58.379 L374.597,57.199 L374.597,53.338 C374.597,50.48 373.971,48.478 372.72,47.332 C371.469,46.19 369.63,45.617 367.198,45.617 C362.622,45.617 356.905,45.905 350.041,46.475 L346.61,46.689 L346.178,38.432 C353.97,36.574 361.14,35.645 367.68,35.645 C374.221,35.645 378.943,37.057 381.839,39.879 C384.731,42.705 386.18,47.19 386.18,53.338 Z" id="Fill-3" fill="#FFFFFE" fill-rule="nonzero"></path>
            <path d="M399.842,90.444 L411.528,90.444 L411.528,36.824 L399.842,36.824 L399.842,90.444 Z M399.842,27.708 L411.528,27.708 L411.528,15.376 L399.842,15.376 L399.842,27.708 Z" id="Fill-4" fill="#FFFFFE" fill-rule="nonzero"></path>
            <path d="M436.001,90.443 L424.314,90.443 L424.314,36.824 L435.893,36.824 L435.893,40.149 C441.111,37.146 446.047,35.645 450.693,35.645 C457.841,35.645 462.72,37.664 465.331,41.703 C467.941,45.742 469.245,52.409 469.245,61.702 L469.245,90.443 L457.665,90.443 L457.665,62.024 C457.665,56.234 457.036,52.123 455.788,49.692 C454.536,47.263 451.98,46.045 448.119,46.045 C444.473,46.045 440.971,46.762 437.609,48.191 L436.001,48.834 L436.001,90.443" id="Fill-5" fill="#FFFFFE"></path>
            <polyline id="Fill-6" fill="#FFFFFE" points="482.844 90.443 482.844 16.985 528.421 16.985 528.421 27.387 494.745 27.387 494.745 52.157 522.736 52.157 522.736 62.56 494.745 62.56 494.745 90.443 482.844 90.443"></polyline>
            <path d="M534.575,90.443 L534.575,36.824 L546.154,36.824 L546.154,43.258 C552.231,39.326 558.308,36.787 564.385,35.645 L564.385,47.332 C558.237,48.549 552.98,50.121 548.622,52.051 L546.261,53.017 L546.261,90.443 L534.575,90.443" id="Fill-7" fill="#FFFFFE"></path>
            <path d="M584.521,77.467 C586.166,80.326 589.383,81.757 594.176,81.757 C598.965,81.757 602.181,80.326 603.825,77.467 C605.469,74.609 606.293,69.924 606.293,63.418 C606.293,56.913 605.418,52.302 603.667,49.585 C601.912,46.869 598.748,45.51 594.176,45.51 C589.599,45.51 586.435,46.869 584.684,49.585 C582.929,52.302 582.057,56.913 582.057,63.418 C582.057,69.924 582.878,74.609 584.521,77.467 Z M575.783,42.615 C579.464,37.968 585.595,35.645 594.176,35.645 C602.752,35.645 608.884,37.968 612.564,42.615 C616.248,47.263 618.09,54.233 618.09,63.525 C618.09,72.821 616.3,79.825 612.726,84.544 C609.15,89.262 602.969,91.622 594.176,91.622 C585.381,91.622 579.197,89.262 575.624,84.544 C572.048,79.825 570.26,72.821 570.26,63.525 C570.26,54.233 572.099,47.263 575.783,42.615 Z" id="Fill-8" fill="#FFFFFE" fill-rule="nonzero"></path>
            <path d="M640.416,90.443 L628.729,90.443 L628.729,36.824 L640.308,36.824 L640.308,40.149 C645.526,37.146 650.462,35.645 655.108,35.645 C662.255,35.645 667.135,37.664 669.746,41.703 C672.356,45.742 673.66,52.409 673.66,61.702 L673.66,90.443 L662.08,90.443 L662.08,62.024 C662.08,56.234 661.451,52.123 660.203,49.692 C658.951,47.263 656.395,46.045 652.534,46.045 C648.888,46.045 645.386,46.762 642.024,48.191 L640.416,48.834 L640.416,90.443" id="Fill-9" fill="#FFFFFE"></path>
            <path d="M714.667,46.796 L699.867,46.796 L699.867,70.39 C699.867,74.751 700.188,77.645 700.833,79.075 C701.475,80.507 703.119,81.22 705.765,81.22 L714.559,80.898 L715.094,90.229 C710.305,91.155 706.657,91.622 704.157,91.622 C698.08,91.622 693.917,90.229 691.663,87.44 C689.413,84.651 688.284,79.397 688.284,71.675 L688.284,46.796 L681.423,46.796 L681.423,36.824 L688.284,36.824 L688.284,21.275 L699.867,21.275 L699.867,36.824 L714.667,36.824 L714.667,46.796" id="Fill-10" fill="#FFFFFE"></path>
            <path d="M138.802,99.275 L108.332,99.275 C105.747,99.275 103.652,97.18 103.652,94.595 C103.652,92.01 105.747,89.915 108.332,89.915 L138.802,89.915 C150.671,89.915 160.328,80.257 160.328,68.388 C160.328,58.532 153.65,49.959 144.088,47.539 C139.463,46.334 136.292,42.19 136.344,37.45 C136.416,30.134 133.397,22.846 128.067,17.461 C122.933,12.278 116.108,9.423 108.85,9.423 C96.29,9.423 87.97,17.121 84.373,24.325 C81.783,29.408 75.573,31.428 70.522,28.864 C66.327,26.767 61.147,26.992 57.033,29.463 C52.291,32.313 49.885,37.222 49.885,44.055 C49.885,46.64 47.79,48.735 45.205,48.735 C42.621,48.735 40.525,46.64 40.525,44.055 C40.525,31.165 46.882,24.642 52.214,21.44 C59.048,17.335 67.675,16.978 74.734,20.506 C75.223,20.749 75.785,20.568 76.017,20.11 C80.848,10.436 92.023,0.064 108.848,0.064 C118.625,0.064 127.811,3.904 134.718,10.875 C141.794,18.023 145.799,27.744 145.704,37.549 C145.698,37.986 145.991,38.363 146.415,38.474 C160.105,41.94 169.688,54.244 169.688,68.388 C169.688,85.418 155.832,99.275 138.802,99.275" id="Fill-11" fill="#957695"></path>
            <path d="M78.364,94.405 C78.364,91.867 76.346,89.798 73.816,89.725 L60.713,89.725 L47.777,70.127 C46.915,68.804 45.445,68.007 43.865,68.007 L31.734,68.007 C29.416,60.548 22.002,55.898 14.28,57.061 C6.558,58.216 0.833,64.841 0.811,72.65 C0.789,80.496 6.508,87.172 14.265,88.342 C22.016,89.512 29.461,84.832 31.757,77.33 L31.749,77.337 L41.336,77.337 L54.234,96.97 C55.096,98.286 56.574,99.083 58.146,99.083 L73.684,99.083 C76.273,99.083 78.364,96.985 78.364,94.404 L78.364,94.405 Z M12.042,68.066 C13.892,66.215 16.678,65.667 19.091,66.669 C21.504,67.67 23.076,70.032 23.069,72.65 C23.054,76.211 20.166,79.092 16.612,79.092 C13.051,79.077 10.17,76.189 10.17,72.635 C10.163,70.924 10.836,69.28 12.042,68.066 Z" id="Fill-12" fill="#FFFFFE" fill-rule="nonzero"></path>
            <path d="M86.524,94.404 C86.524,96.988 88.619,99.083 91.204,99.083 C93.789,99.083 95.884,96.988 95.884,94.404 C95.884,91.819 93.789,89.724 91.204,89.724 C88.619,89.724 86.524,91.819 86.524,94.404" id="Fill-13" fill="#FFFFFE"></path>
        </g>
    </g>
</svg>