<svg xmlns="http://www.w3.org/2000/svg" width="60" height="55" viewBox="0 0 60 55">
    <path fill="#9A81A3" fill-rule="evenodd" stroke="#F6F5F7" stroke-width=".6" d="M31.528 37.342V50.97H42.21c.842 0 1.527.679 1.527 1.514 0 .836-.685 1.515-1.527 1.515H17.79c-.841 0-1.526-.68-1.526-1.515 0-.835.685-1.514 1.527-1.514h10.682V37.34H2.527c-.842 0-1.527-.679-1.527-1.514V2.515C1 1.679 1.685 1 2.527 1h54.946C58.315 1 59 1.68 59 2.515v33.312c0 .835-.685 1.515-1.527 1.515H31.528zM4.055 4.029v30.283h51.893V4.03H4.055z"/>
</svg>
