<?xml version="1.0" encoding="utf-8"?>
<!-- Generator: Adobe Illustrator 22.1.0, SVG Export Plug-In . SVG Version: 6.00 Build 0)  -->
<svg version="1.1" id="Layer_1" xmlns="http://www.w3.org/2000/svg" xmlns:xlink="http://www.w3.org/1999/xlink" x="0px" y="0px"
	 viewBox="0 0 1289 594" style="enable-background:new 0 0 1289 594;" xml:space="preserve">
<style type="text/css">
	.st0{opacity:0.5;}
	.st1{opacity:0.1;}
	.st2{fill:#FFFFFF;}
	.st3{opacity:0.2;}
	.st4{opacity:0.3;}
	.st5{opacity:5.000000e-02;}
	.st6{opacity:0.7;}
	.st7{opacity:0.6;}
	.st8{opacity:0.8;}
</style>
<g class="st0">
	<g class="st1">
		<polygon class="st2" points="518.6,193 455.8,214.2 432.7,144.6 		"/>
	</g>
	<g class="st3">
		<polygon class="st2" points="1123.3,122.8 1133.7,59.6 1089.2,156 		"/>
	</g>
	<g class="st3">
		<polygon class="st2" points="904.8,206.4 891,246.9 847.6,218.5 		"/>
	</g>
	<g class="st0">
		
			<rect x="1129.7" y="51.7" transform="matrix(0.4185 -0.9082 0.9082 0.4185 638.3646 1101.2734)" class="st2" width="99" height="0.9"/>
	</g>
	<g class="st4">
		
			<rect x="1106.6" y="140.6" transform="matrix(0.1623 -0.9867 0.9867 0.1623 825.1559 1254.1527)" class="st2" width="89.2" height="0.9"/>
	</g>
	<g class="st1">
		<path class="st2" d="M633.2,342.1c1.8,3.1,35.9,58.4,35.9,58.4L591.7,369L633.2,342.1z"/>
	</g>
	<g class="st5">
		<polygon class="st2" points="523.1,321.3 471.1,384.3 451.4,330.6 		"/>
	</g>
	<g class="st5">
		<polygon class="st2" points="399.8,417.9 320.5,350 333,402 		"/>
	</g>
	<g class="st3">
		<polygon class="st2" points="216.4,362.5 160.4,318.5 190.7,383.6 		"/>
	</g>
	<g class="st1">
		<polygon class="st2" points="286,210.2 236.6,153.8 160.1,223.7 		"/>
	</g>
	<g class="st3">
		<polygon class="st2" points="800.6,324.5 773.1,380.9 728.3,316 		"/>
	</g>
	<g class="st3">
		<polygon class="st2" points="629,228.7 595.5,280 567.7,235.7 		"/>
	</g>
	<g class="st1">
		<polygon class="st2" points="424.1,276.6 379,278.6 451.4,330.6 		"/>
	</g>
	<g class="st1">
		<polygon class="st2" points="286.7,398.4 298,442.7 224.9,457.1 		"/>
	</g>
	<g>
		<path class="st2" d="M563.8,235.9c0.1,2.2,1.9,3.8,4.1,3.7c2.2-0.1,3.8-1.9,3.7-4.1s-1.9-3.8-4.1-3.7
			C565.3,231.9,563.7,233.8,563.8,235.9z"/>
	</g>
	<g>
		
			<ellipse transform="matrix(0.6745 -0.7383 0.7383 0.6745 -44.7593 576.5083)" class="st2" cx="631.4" cy="339" rx="7.8" ry="7.8"/>
	</g>
	<g>
		<path class="st2" d="M970.2,195.8c0.1,2,1.8,3.6,3.8,3.5c2-0.1,3.6-1.8,3.5-3.8c-0.1-2-1.8-3.6-3.8-3.5
			C971.7,192.1,970.1,193.8,970.2,195.8z"/>
	</g>
	<g>
		
			<ellipse transform="matrix(0.6745 -0.7383 0.7383 0.6745 -229.8343 364.1082)" class="st2" cx="298" cy="442.7" rx="7.8" ry="7.8"/>
	</g>
	<g>
		<path class="st2" d="M519.2,321.5c0.1,2.2,1.9,3.8,4.1,3.7c2.2-0.1,3.8-1.9,3.7-4.1c-0.1-2.2-1.9-3.8-4.1-3.7
			C520.8,317.5,519.1,319.4,519.2,321.5z"/>
	</g>
	<g>
		<path class="st2" d="M282.1,210.3c0.1,2.2,1.9,3.8,4.1,3.7c2.2-0.1,3.8-1.9,3.7-4.1s-1.9-3.8-4.1-3.7
			C283.7,206.4,282,208.2,282.1,210.3z"/>
	</g>
	<g>
		<path class="st2" d="M316.6,350.2c0.1,2.2,1.9,3.8,4.1,3.7c2.2-0.1,3.8-1.9,3.7-4.1c-0.1-2.2-1.9-3.8-4.1-3.7
			C318.2,346.2,316.5,348,316.6,350.2z"/>
	</g>
	<g>
		<path class="st2" d="M153.9,223.9c0.2,3.4,3.1,6.1,6.5,6c3.4-0.2,6.1-3.1,6-6.5c-0.2-3.4-3.1-6.1-6.5-6
			C156.4,217.6,153.7,220.5,153.9,223.9z"/>
	</g>
	<g>
		<path class="st2" d="M468.8,384.4c0.1,1.3,1.2,2.3,2.4,2.2c1.3-0.1,2.3-1.2,2.2-2.4c-0.1-1.3-1.2-2.3-2.4-2.2
			C469.7,382.1,468.7,383.1,468.8,384.4z"/>
	</g>
	<g>
		<path class="st2" d="M282.8,398.6c0.1,2.2,1.9,3.8,4.1,3.7c2.2-0.1,3.8-1.9,3.7-4.1c-0.1-2.2-1.9-3.8-4.1-3.7
			C284.4,394.6,282.7,396.4,282.8,398.6z"/>
	</g>
	<g>
		<path class="st2" d="M451,334.5c2.1,0.2,4.1-1.3,4.3-3.5c0.2-2.1-1.3-4.1-3.5-4.3c-2.1-0.2-4.1,1.3-4.3,3.5
			C447.3,332.3,448.8,334.3,451,334.5z"/>
	</g>
	<g>
		<path class="st2" d="M496.6,278.7c3,0.3,5.7-1.9,6-4.9c0.3-3-1.9-5.7-4.9-6c-3-0.3-5.7,1.9-6,4.9
			C491.4,275.7,493.6,278.4,496.6,278.7z"/>
	</g>
	<g>
		<path class="st2" d="M680.7,286.3c1.3,0.1,2.4-0.8,2.6-2.1c0.1-1.3-0.8-2.4-2.1-2.6c-1.3-0.1-2.4,0.8-2.6,2.1
			C678.5,285,679.4,286.1,680.7,286.3z"/>
	</g>
	<g>
		<path class="st2" d="M668.7,404.4c2.1,0.2,4.1-1.3,4.3-3.5c0.2-2.1-1.3-4.1-3.5-4.3c-2.1-0.2-4.1,1.3-4.3,3.5
			C665,402.3,666.6,404.2,668.7,404.4z"/>
	</g>
	<g>
		<path class="st2" d="M890.7,250.7c2.1,0.2,4.1-1.3,4.3-3.5c0.2-2.1-1.3-4.1-3.5-4.3c-2.1-0.2-4.1,1.3-4.3,3.5
			C886.9,248.6,888.5,250.5,890.7,250.7z"/>
	</g>
	<g>
		<path class="st2" d="M1088.8,159.9c2.1,0.2,4.1-1.3,4.3-3.5c0.2-2.1-1.3-4.1-3.5-4.3c-2.1-0.2-4.1,1.3-4.3,3.5
			C1085.1,157.7,1086.6,159.7,1088.8,159.9z"/>
	</g>
	<g>
		<circle class="st2" cx="389.9" cy="208.8" r="3.9"/>
	</g>
	<g>
		<path class="st2" d="M181.1,100.8c0.1,2.2,1.9,3.8,4.1,3.7c2.2-0.1,3.8-1.9,3.7-4.1c-0.1-2.2-1.9-3.8-4.1-3.7
			C182.7,96.9,181,98.7,181.1,100.8z"/>
	</g>
	<g>
		<path class="st2" d="M318.8,277.4c0.1,1.3,1.2,2.3,2.4,2.2c1.3-0.1,2.3-1.2,2.2-2.4c-0.1-1.3-1.2-2.3-2.4-2.2
			C319.7,275.1,318.7,276.1,318.8,277.4z"/>
	</g>
	<g>
		<path class="st2" d="M212.5,362.7c0.1,2.2,1.9,3.8,4.1,3.7c2.2-0.1,3.8-1.9,3.7-4.1c-0.1-2.2-1.9-3.8-4.1-3.7
			C214,358.7,212.4,360.6,212.5,362.7z"/>
	</g>
	<g>
		<path class="st2" d="M769.2,381.1c0.1,2.2,1.9,3.8,4.1,3.7s3.8-1.9,3.7-4.1s-1.9-3.8-4.1-3.7S769.1,378.9,769.2,381.1z"/>
	</g>
	<g>
		<path class="st2" d="M872.1,319.1c0.1,2.2,1.9,3.8,4.1,3.7c2.2-0.1,3.8-1.9,3.7-4.1c-0.1-2.2-1.9-3.8-4.1-3.7
			S872,316.9,872.1,319.1z"/>
	</g>
	<g>
		<path class="st2" d="M1061.2,248.7c0.1,2.2,1.9,3.8,4.1,3.7c2.2-0.1,3.8-1.9,3.7-4.1c-0.1-2.2-1.9-3.8-4.1-3.7
			C1062.8,244.7,1061.2,246.6,1061.2,248.7z"/>
	</g>
	<g>
		<circle class="st2" cx="1199.9" cy="7.2" r="2"/>
	</g>
	<g>
		<path class="st2" d="M814.2,275.2c0.1,1.3,1.2,2.3,2.4,2.2c1.3-0.1,2.3-1.2,2.2-2.4c-0.1-1.3-1.2-2.3-2.4-2.2
			C815.1,272.8,814.1,273.9,814.2,275.2z"/>
	</g>
	<g>
		<path class="st2" d="M1031.2,169.4c0.1,1.3,1.2,2.3,2.4,2.2c1.3-0.1,2.3-1.2,2.2-2.4c-0.1-1.3-1.2-2.3-2.4-2.2
			C1032.1,167,1031.1,168.1,1031.2,169.4z"/>
	</g>
	<g>
		<path class="st2" d="M1121,122.9c0.1,1.3,1.2,2.3,2.4,2.2c1.3-0.1,2.3-1.2,2.2-2.4c-0.1-1.3-1.2-2.3-2.4-2.2
			C1121.9,120.5,1120.9,121.6,1121,122.9z"/>
	</g>
	<g>
		<path class="st2" d="M796.7,324.6c0.1,2.2,1.9,3.8,4.1,3.7c2.2-0.1,3.8-1.9,3.7-4.1c-0.1-2.2-1.9-3.8-4.1-3.7
			C798.3,320.7,796.6,322.5,796.7,324.6z"/>
	</g>
	<g>
		<path class="st2" d="M762.3,261.3c0.1,1.9,1.7,3.3,3.5,3.2c1.9-0.1,3.3-1.7,3.2-3.5c-0.1-1.9-1.7-3.3-3.5-3.2
			S762.2,259.5,762.3,261.3z"/>
	</g>
	<g>
		<path class="st2" d="M724.4,316.2c0.1,2.2,1.9,3.8,4.1,3.7c2.2-0.1,3.8-1.9,3.7-4.1c-0.1-2.2-1.9-3.8-4.1-3.7
			C726,312.2,724.3,314,724.4,316.2z"/>
	</g>
	<g>
		<ellipse transform="matrix(0.963 -0.2696 0.2696 0.963 -77.5938 173.206)" class="st2" cx="591.7" cy="369" rx="3.9" ry="3.9"/>
	</g>
	<g>
		<path class="st2" d="M591.6,280.2c0.1,2.2,1.9,3.8,4.1,3.7c2.2-0.1,3.8-1.9,3.7-4.1c-0.1-2.2-1.9-3.8-4.1-3.7
			C593.1,276.2,591.5,278,591.6,280.2z"/>
	</g>
	<g>
		<ellipse transform="matrix(0.8542 -0.52 0.52 0.8542 -44.9308 268.2425)" class="st2" cx="455.8" cy="214.2" rx="3.9" ry="3.9"/>
	</g>
	<g>
		<path class="st2" d="M322.7,133.3c0.1,1.3,1.2,2.3,2.4,2.2c1.3-0.1,2.3-1.2,2.2-2.4c-0.1-1.3-1.2-2.3-2.4-2.2
			C323.7,130.9,322.7,132,322.7,133.3z"/>
	</g>
	<g>
		<path class="st2" d="M516.2,193.1c0.1,1.3,1.2,2.3,2.4,2.2c1.3-0.1,2.3-1.2,2.2-2.4c-0.1-1.3-1.2-2.3-2.4-2.2
			C517.2,190.7,516.2,191.8,516.2,193.1z"/>
	</g>
	<g>
		<path class="st2" d="M698.6,214.9c0.1,1.3,1.2,2.3,2.4,2.2c1.3-0.1,2.3-1.2,2.2-2.4c-0.1-1.3-1.2-2.3-2.4-2.2
			C699.5,212.5,698.5,213.6,698.6,214.9z"/>
	</g>
	<g>
		<path class="st2" d="M365.2,499.7c0.1,1.3,1.2,2.3,2.4,2.2c1.3-0.1,2.3-1.2,2.2-2.4c-0.1-1.3-1.2-2.3-2.4-2.2
			C366.2,497.3,365.2,498.4,365.2,499.7z"/>
	</g>
	<g>
		<path class="st2" d="M164.4,544.5c0.1,1.3,1.2,2.3,2.4,2.2c1.3-0.1,2.3-1.2,2.2-2.4c-0.1-1.3-1.2-2.3-2.4-2.2
			C165.3,542.1,164.3,543.2,164.4,544.5z"/>
	</g>
	<g>
		<path class="st2" d="M567.3,449.1c0.1,1.3,1.2,2.3,2.4,2.2c1.3-0.1,2.3-1.2,2.2-2.4c-0.1-1.3-1.2-2.3-2.4-2.2
			C568.2,446.7,567.2,447.8,567.3,449.1z"/>
	</g>
	<g>
		<path class="st2" d="M717.9,406.3c0.1,1.3,1.2,2.3,2.4,2.2c1.3-0.1,2.3-1.2,2.2-2.4c-0.1-1.3-1.2-2.3-2.4-2.2
			C718.8,403.9,717.8,405,717.9,406.3z"/>
	</g>
	<g>
		<path class="st2" d="M917.3,272.6c0.1,1.3,1.2,2.3,2.4,2.2c1.3-0.1,2.3-1.2,2.2-2.4c-0.1-1.3-1.2-2.3-2.4-2.2
			C918.2,270.2,917.2,271.3,917.3,272.6z"/>
	</g>
	<g>
		<path class="st2" d="M476.2,108.4c0.1,1.3,1.2,2.3,2.4,2.2c1.3-0.1,2.3-1.2,2.2-2.4c-0.1-1.3-1.2-2.3-2.4-2.2
			C477.1,106,476.1,107.1,476.2,108.4z"/>
	</g>
	<g>
		<path class="st2" d="M477.3,466.6c0.1,1.3,1.2,2.3,2.4,2.2c1.3-0.1,2.3-1.2,2.2-2.4c-0.1-1.3-1.2-2.3-2.4-2.2
			C478.3,464.2,477.3,465.3,477.3,466.6z"/>
	</g>
	<g>
		<path class="st2" d="M735.7,145c0.1,1.3,1.2,2.3,2.4,2.2c1.3-0.1,2.3-1.2,2.2-2.4c-0.1-1.3-1.2-2.3-2.4-2.2
			C736.7,142.6,735.7,143.7,735.7,145z"/>
	</g>
	<g>
		<path class="st2" d="M943.1,284.7c0.1,1.3,1.2,2.3,2.4,2.2c1.3-0.1,2.3-1.2,2.2-2.4c-0.1-1.3-1.2-2.3-2.4-2.2
			C944,282.3,943,283.4,943.1,284.7z"/>
	</g>
	<g>
		<path class="st2" d="M1051,135.4c0.1,1.3,1.2,2.3,2.4,2.2c1.3-0.1,2.3-1.2,2.2-2.4c-0.1-1.3-1.2-2.3-2.4-2.2
			C1051.9,133,1050.9,134.1,1051,135.4z"/>
	</g>
	<g>
		<path class="st2" d="M176.1,49.3c0.1,1.3,1.2,2.3,2.4,2.2c1.3-0.1,2.3-1.2,2.2-2.4c-0.1-1.3-1.2-2.3-2.4-2.2
			C177.1,46.9,176.1,48,176.1,49.3z"/>
	</g>
	<g>
		<path class="st2" d="M292.8,527c0.1,1.3,1.2,2.3,2.4,2.2c1.3-0.1,2.3-1.2,2.2-2.4c-0.1-1.3-1.2-2.3-2.4-2.2
			C293.8,524.6,292.8,525.7,292.8,527z"/>
	</g>
	<g>
		<circle class="st2" cx="363" cy="59.4" r="1.6"/>
	</g>
	<g>
		<path class="st2" d="M134.1,76.3c0,0.9,0.8,1.5,1.6,1.5c0.9,0,1.5-0.8,1.5-1.6c0-0.9-0.8-1.5-1.6-1.5
			C134.7,74.7,134.1,75.5,134.1,76.3z"/>
	</g>
	<g>
		<path class="st2" d="M167.5,429.2c0,0.9,0.8,1.5,1.6,1.5c0.9,0,1.5-0.8,1.5-1.6c0-0.9-0.8-1.5-1.6-1.5
			C168.1,427.6,167.5,428.4,167.5,429.2z"/>
	</g>
	<g>
		<circle class="st2" cx="658.5" cy="84.7" r="1.6"/>
	</g>
	<g>
		<path class="st2" d="M235.4,235.8c0,0.9,0.8,1.5,1.6,1.5c0.9,0,1.5-0.8,1.5-1.6c0-0.9-0.8-1.5-1.6-1.5
			C236,234.2,235.4,234.9,235.4,235.8z"/>
	</g>
	<g>
		<path class="st2" d="M636.3,165.7c0,0.9,0.8,1.5,1.6,1.5c0.9,0,1.5-0.8,1.5-1.6c0-0.9-0.8-1.5-1.6-1.5
			C636.9,164.1,636.2,164.9,636.3,165.7z"/>
	</g>
	<g>
		<path class="st2" d="M868.2,180.9c0,0.9,0.8,1.5,1.6,1.5c0.9,0,1.5-0.8,1.5-1.6c0-0.9-0.8-1.5-1.6-1.5
			C868.8,179.3,868.2,180.1,868.2,180.9z"/>
	</g>
	<g>
		<path class="st2" d="M1202.6,88.1c0,0.9,0.8,1.5,1.6,1.5c0.9,0,1.5-0.8,1.5-1.6c0-0.9-0.8-1.5-1.6-1.5
			C1203.3,86.5,1202.6,87.3,1202.6,88.1z"/>
	</g>
	<g>
		<path class="st2" d="M1093,81.1c0,0.9,0.8,1.5,1.6,1.5c0.9,0,1.5-0.8,1.5-1.6c0-0.9-0.8-1.5-1.6-1.5S1093,80.2,1093,81.1z"/>
	</g>
	<g>
		<path class="st2" d="M1132.3,59.9c0,0.9,0.8,1.5,1.6,1.5c0.9,0,1.5-0.8,1.5-1.6c0-0.9-0.8-1.5-1.6-1.5
			C1132.9,58.4,1132.2,59.1,1132.3,59.9z"/>
	</g>
	<g>
		<path class="st2" d="M901.7,206.6c0.1,1.7,1.6,3.1,3.3,3c1.7-0.1,3.1-1.6,3-3.3c-0.1-1.7-1.6-3.1-3.3-3
			C902.9,203.4,901.6,204.9,901.7,206.6z"/>
	</g>
	<g>
		<path class="st2" d="M981,235.1c0,0.9,0.8,1.5,1.6,1.5c0.9,0,1.5-0.8,1.5-1.6c0-0.9-0.8-1.5-1.6-1.5
			C981.6,233.5,981,234.3,981,235.1z"/>
	</g>
	<g>
		<path class="st2" d="M1108.2,172.6c0.1,1.3,1.1,2.2,2.4,2.2c1.3-0.1,2.2-1.1,2.2-2.4c-0.1-1.3-1.1-2.2-2.4-2.2
			C1109.1,170.2,1108.1,171.3,1108.2,172.6z"/>
	</g>
	<g>
		<path class="st2" d="M768.9,220.5c0,0.9,0.8,1.5,1.6,1.5c0.9,0,1.5-0.8,1.5-1.6c0-0.9-0.8-1.5-1.6-1.5
			C769.6,218.9,768.9,219.6,768.9,220.5z"/>
	</g>
	<g>
		<path class="st2" d="M264.9,87.3c0,0.4,0.4,0.8,0.8,0.7c0.4,0,0.8-0.4,0.7-0.8c0-0.4-0.4-0.8-0.8-0.7
			C265.2,86.5,264.9,86.9,264.9,87.3z"/>
	</g>
	<g>
		<path class="st2" d="M571.1,113.1c0,0.4,0.4,0.8,0.8,0.7c0.4,0,0.8-0.4,0.7-0.8c0-0.4-0.4-0.8-0.8-0.7
			C571.4,112.3,571.1,112.6,571.1,113.1z"/>
	</g>
	<g>
		<path class="st2" d="M594,191.2c0,0.4,0.4,0.8,0.8,0.7c0.4,0,0.8-0.4,0.7-0.8c0-0.4-0.4-0.8-0.8-0.7
			C594.3,190.4,593.9,190.8,594,191.2z"/>
	</g>
	<g>
		<path class="st2" d="M773.4,123.6c0,0.4,0.4,0.8,0.8,0.7c0.4,0,0.8-0.4,0.7-0.8c0-0.4-0.4-0.8-0.8-0.7
			C773.7,122.8,773.4,123.1,773.4,123.6z"/>
	</g>
	<g>
		<path class="st2" d="M982.9,144.8c0,0.4,0.4,0.8,0.8,0.7c0.4,0,0.8-0.4,0.7-0.8c0-0.4-0.4-0.8-0.8-0.7
			C983.2,144,982.9,144.3,982.9,144.8z"/>
	</g>
	<g>
		<path class="st2" d="M888.5,145.6c0,0.4,0.4,0.8,0.8,0.7c0.4,0,0.8-0.4,0.7-0.8c0-0.4-0.4-0.8-0.8-0.7
			C888.8,144.8,888.5,145.2,888.5,145.6z"/>
	</g>
	<g>
		<path class="st2" d="M829.1,230.2c0,0.4,0.4,0.8,0.8,0.7c0.4,0,0.8-0.4,0.7-0.8c0-0.4-0.4-0.8-0.8-0.7
			C829.4,229.5,829,229.8,829.1,230.2z"/>
	</g>
	<g>
		<path class="st2" d="M827.3,153.7c0,0.4,0.4,0.8,0.8,0.7c0.4,0,0.8-0.4,0.7-0.8c0-0.4-0.4-0.8-0.8-0.7
			C827.6,152.9,827.3,153.3,827.3,153.7z"/>
	</g>
	<g>
		<path class="st2" d="M913.5,117.5c0,0.4,0.4,0.8,0.8,0.7c0.4,0,0.8-0.4,0.7-0.8c0-0.4-0.4-0.8-0.8-0.7
			C913.8,116.7,913.5,117,913.5,117.5z"/>
	</g>
	<g>
		<path class="st2" d="M1138.2,20.9c0,0.4,0.4,0.8,0.8,0.7c0.4,0,0.8-0.4,0.7-0.8c0-0.4-0.4-0.8-0.8-0.7
			C1138.6,20.1,1138.2,20.5,1138.2,20.9z"/>
	</g>
	<g>
		<path class="st2" d="M1062.5,99.5c0,0.4,0.4,0.8,0.8,0.7c0.4,0,0.8-0.4,0.7-0.8c0-0.4-0.4-0.8-0.8-0.7
			C1062.8,98.7,1062.5,99.1,1062.5,99.5z"/>
	</g>
	<g>
		<path class="st2" d="M1093.5,132.4c0,0.4,0.4,0.8,0.8,0.7c0.4,0,0.8-0.4,0.7-0.8c0-0.4-0.4-0.8-0.8-0.7
			C1093.8,131.6,1093.5,132,1093.5,132.4z"/>
	</g>
	<g>
		<path class="st2" d="M1098.2,52.6c0,0.4,0.4,0.8,0.8,0.7c0.4,0,0.8-0.4,0.7-0.8c0-0.4-0.4-0.8-0.8-0.7
			C1098.5,51.8,1098.2,52.2,1098.2,52.6z"/>
	</g>
	<g>
		<path class="st2" d="M1026.3,93.5c0,0.4,0.4,0.8,0.8,0.7c0.4,0,0.8-0.4,0.7-0.8c0-0.4-0.4-0.8-0.8-0.7
			C1026.6,92.8,1026.3,93.1,1026.3,93.5z"/>
	</g>
	<g>
		<path class="st2" d="M1235.1,143.9c0,0.4,0.4,0.8,0.8,0.7c0.4,0,0.8-0.4,0.7-0.8c0-0.4-0.4-0.8-0.8-0.7
			C1235.4,143.1,1235.1,143.4,1235.1,143.9z"/>
	</g>
	<g>
		<path class="st2" d="M1174.3,117.1c0,0.4,0.4,0.8,0.8,0.7c0.4,0,0.8-0.4,0.7-0.8c0-0.4-0.4-0.8-0.8-0.7
			C1174.6,116.3,1174.3,116.6,1174.3,117.1z"/>
	</g>
	<g>
		<path class="st2" d="M1217.7,46.7c0,0.4,0.4,0.8,0.8,0.7c0.4,0,0.8-0.4,0.7-0.8c0-0.4-0.4-0.8-0.8-0.7
			C1218,45.9,1217.7,46.2,1217.7,46.7z"/>
	</g>
	<g>
		<path class="st2" d="M781.5,190.3c0,0.4,0.4,0.8,0.8,0.7c0.4,0,0.8-0.4,0.7-0.8c0-0.4-0.4-0.8-0.8-0.7
			C781.8,189.5,781.5,189.9,781.5,190.3z"/>
	</g>
	<g>
		<path class="st2" d="M494.1,156.5c0,0.4,0.4,0.8,0.8,0.7c0.4,0,0.8-0.4,0.7-0.8c0-0.4-0.4-0.8-0.8-0.7
			C494.4,155.7,494.1,156.1,494.1,156.5z"/>
	</g>
	<g>
		<path class="st2" d="M348.7,114.5c0,0.4,0.4,0.8,0.8,0.7c0.4,0,0.8-0.4,0.7-0.8c0-0.4-0.4-0.8-0.8-0.7
			C349,113.7,348.7,114,348.7,114.5z"/>
	</g>
	<g>
		<path class="st2" d="M396.5,123.2c0,0.4,0.4,0.8,0.8,0.7c0.4,0,0.8-0.4,0.7-0.8c0-0.4-0.4-0.8-0.8-0.7
			C396.8,122.4,396.5,122.8,396.5,123.2z"/>
	</g>
	<g>
		<path class="st2" d="M452.3,64c0,0.4,0.4,0.8,0.8,0.7c0.4,0,0.8-0.4,0.7-0.8c0-0.4-0.4-0.8-0.8-0.7
			C452.6,63.2,452.3,63.6,452.3,64z"/>
	</g>
	<g>
		<path class="st2" d="M190.8,28c0,0.4,0.4,0.8,0.8,0.7c0.4,0,0.8-0.4,0.7-0.8c0-0.4-0.4-0.8-0.8-0.7
			C191.2,27.2,190.8,27.6,190.8,28z"/>
	</g>
	<g>
		<path class="st2" d="M381.9,306.6c0,0.4,0.4,0.8,0.8,0.7c0.4,0,0.8-0.4,0.7-0.8c0-0.4-0.4-0.8-0.8-0.7
			C382.2,305.8,381.9,306.2,381.9,306.6z"/>
	</g>
	<g>
		<path class="st2" d="M208,65.8c0,0.4,0.4,0.8,0.8,0.7c0.4,0,0.8-0.4,0.7-0.8c0-0.4-0.4-0.8-0.8-0.7C208.3,65,208,65.3,208,65.8z"
			/>
	</g>
	<g>
		<path class="st2" d="M280.6,13.5c0,0.4,0.4,0.8,0.8,0.7c0.4,0,0.8-0.4,0.7-0.8c0-0.4-0.4-0.8-0.8-0.7
			C280.9,12.7,280.6,13.1,280.6,13.5z"/>
	</g>
	<g>
		<path class="st2" d="M419.9,497.6c0,0.4,0.4,0.8,0.8,0.7c0.4,0,0.8-0.4,0.7-0.8c0-0.4-0.4-0.8-0.8-0.7
			C420.2,496.8,419.9,497.1,419.9,497.6z"/>
	</g>
	<g>
		<path class="st2" d="M356.2,553.2c0,0.4,0.4,0.8,0.8,0.7c0.4,0,0.8-0.4,0.7-0.8c0-0.4-0.4-0.8-0.8-0.7
			C356.5,552.4,356.2,552.8,356.2,553.2z"/>
	</g>
	<g>
		<path class="st2" d="M704.3,200c0,0.4,0.4,0.8,0.8,0.7c0.4,0,0.8-0.4,0.7-0.8c0-0.4-0.4-0.8-0.8-0.7
			C704.7,199.2,704.3,199.5,704.3,200z"/>
	</g>
	<g>
		<path class="st2" d="M994.9,247.2c0,0.4,0.4,0.8,0.8,0.7c0.4,0,0.8-0.4,0.7-0.8c0-0.4-0.4-0.8-0.8-0.7
			C995.2,246.5,994.9,246.8,994.9,247.2z"/>
	</g>
	<g>
		<path class="st2" d="M1173,189.1c0,0.4,0.4,0.8,0.8,0.7c0.4,0,0.8-0.4,0.7-0.8c0-0.4-0.4-0.8-0.8-0.7
			C1173.3,188.3,1173,188.7,1173,189.1z"/>
	</g>
	<g>
		<path class="st2" d="M517.4,467.1c0,0.4,0.4,0.8,0.8,0.7c0.4,0,0.8-0.4,0.7-0.8c0-0.4-0.4-0.8-0.8-0.7
			C517.7,466.3,517.3,466.6,517.4,467.1z"/>
	</g>
	<g>
		<path class="st2" d="M515,506.1c0,0.4,0.4,0.8,0.8,0.7c0.4,0,0.8-0.4,0.7-0.8c0-0.4-0.4-0.8-0.8-0.7
			C515.4,505.3,515,505.6,515,506.1z"/>
	</g>
	<g>
		<path class="st2" d="M1093.3,243.9c0,0.4,0.4,0.8,0.8,0.7c0.4,0,0.8-0.4,0.7-0.8c0-0.4-0.4-0.8-0.8-0.7
			C1093.6,243.1,1093.3,243.4,1093.3,243.9z"/>
	</g>
	<g>
		<path class="st2" d="M603.9,460.5c0,0.4,0.4,0.8,0.8,0.7c0.4,0,0.8-0.4,0.7-0.8c0-0.4-0.4-0.8-0.8-0.7
			C604.2,459.7,603.8,460.1,603.9,460.5z"/>
	</g>
	<g>
		<path class="st2" d="M593,422.5c0,0.4,0.4,0.8,0.8,0.7c0.4,0,0.8-0.4,0.7-0.8c0-0.4-0.4-0.8-0.8-0.7
			C593.3,421.7,592.9,422.1,593,422.5z"/>
	</g>
	<g>
		<path class="st2" d="M665.9,425.9c0,0.4,0.4,0.8,0.8,0.7c0.4,0,0.8-0.4,0.7-0.8c0-0.4-0.4-0.8-0.8-0.7
			C666.2,425.1,665.9,425.4,665.9,425.9z"/>
	</g>
	<g>
		<path class="st2" d="M836,340.5c-0.4,0.2-0.6,0.6-0.4,1c0.2,0.4,0.6,0.6,1,0.4c0.4-0.2,0.6-0.6,0.4-1
			C836.8,340.6,836.4,340.4,836,340.5z"/>
	</g>
	<g>
		<path class="st2" d="M869.4,293.9c-0.4,0.2-0.6,0.6-0.4,1c0.2,0.4,0.6,0.6,1,0.4c0.4-0.2,0.6-0.6,0.4-1
			C870.2,294,869.8,293.8,869.4,293.9z"/>
	</g>
	<g>
		<path class="st2" d="M904,317c-0.4,0.2-0.6,0.6-0.4,1c0.2,0.4,0.6,0.6,1,0.4c0.4-0.2,0.6-0.6,0.4-1
			C904.9,317.1,904.4,316.9,904,317z"/>
	</g>
	<g>
		<path class="st2" d="M1048.8,260.8c-0.4,0.2-0.6,0.6-0.4,1c0.2,0.4,0.6,0.6,1,0.4c0.4-0.2,0.6-0.6,0.4-1
			C1049.6,260.9,1049.2,260.7,1048.8,260.8z"/>
	</g>
	<g>
		<path class="st2" d="M186.7,478.1c-0.4,0.2-0.6,0.6-0.4,1c0.2,0.4,0.6,0.6,1,0.4c0.4-0.2,0.6-0.6,0.4-1
			C187.6,478.1,187.1,477.9,186.7,478.1z"/>
	</g>
	<g>
		<path class="st2" d="M229.9,572.5c-0.4,0.2-0.6,0.6-0.4,1c0.2,0.4,0.6,0.6,1,0.4c0.4-0.2,0.6-0.6,0.4-1
			C230.7,572.5,230.3,572.3,229.9,572.5z"/>
	</g>
	<g>
		<path class="st2" d="M559,193c0,0.9,0.8,1.5,1.6,1.5c0.9,0,1.5-0.8,1.5-1.6c0-0.9-0.8-1.5-1.6-1.5C559.6,191.4,559,192.1,559,193z
			"/>
	</g>
	<g>
		<path class="st2" d="M330.7,181c0.1,1.3,1.2,2.3,2.4,2.2c1.3-0.1,2.3-1.2,2.2-2.4c-0.1-1.3-1.2-2.3-2.4-2.2
			C331.7,178.6,330.7,179.7,330.7,181z"/>
	</g>
	<g>
		<path class="st2" d="M430.3,144.7c0.1,1.3,1.2,2.3,2.4,2.2c1.3-0.1,2.3-1.2,2.2-2.4c-0.1-1.3-1.2-2.3-2.4-2.2
			C431.3,142.3,430.3,143.4,430.3,144.7z"/>
	</g>
	<g>
		<path class="st2" d="M1141.6,184.8c0.1,1.3,1.2,2.3,2.4,2.2c1.3-0.1,2.3-1.2,2.2-2.4c-0.1-1.3-1.2-2.3-2.4-2.2
			C1142.6,182.4,1141.6,183.5,1141.6,184.8z"/>
	</g>
	<g>
		<path class="st2" d="M937.6,156.5c0.1,1.3,1.2,2.3,2.4,2.2c1.3-0.1,2.3-1.2,2.2-2.4c-0.1-1.3-1.2-2.3-2.4-2.2
			C938.6,154.2,937.6,155.3,937.6,156.5z"/>
	</g>
	<g>
		<path class="st2" d="M1156.1,97.7c0.1,1.3,1.2,2.3,2.4,2.2c1.3-0.1,2.3-1.2,2.2-2.4c-0.1-1.3-1.2-2.3-2.4-2.2
			C1157,95.4,1156,96.4,1156.1,97.7z"/>
	</g>
	<g>
		<path class="st2" d="M1144.5,70.5c-0.2,1.3,0.6,2.5,1.9,2.7c1.3,0.2,2.5-0.6,2.7-1.9c0.2-1.3-0.6-2.5-1.9-2.7
			C1146,68.4,1144.8,69.3,1144.5,70.5z"/>
	</g>
	<g>
		<path class="st2" d="M626.6,228.8c0.1,1.3,1.2,2.3,2.4,2.2c1.3-0.1,2.3-1.2,2.2-2.4c-0.1-1.3-1.2-2.3-2.4-2.2
			C627.6,226.4,626.6,227.5,626.6,228.8z"/>
	</g>
	<g>
		<path class="st2" d="M845.2,218.6c0.1,1.3,1.2,2.3,2.4,2.2c1.3-0.1,2.3-1.2,2.2-2.4c-0.1-1.3-1.2-2.3-2.4-2.2
			C846.2,216.2,845.2,217.3,845.2,218.6z"/>
	</g>
	<g>
		<path class="st2" d="M536.8,407.6c1.3,0.1,2.4-0.8,2.6-2.1c0.1-1.3-0.8-2.4-2.1-2.6c-1.3-0.1-2.4,0.8-2.6,2.1
			S535.5,407.5,536.8,407.6z"/>
	</g>
	<g>
		<path class="st2" d="M332.8,404.3c1.3,0.1,2.4-0.8,2.6-2.1c0.1-1.3-0.8-2.4-2.1-2.6c-1.3-0.1-2.4,0.8-2.6,2.1
			C330.6,403,331.5,404.2,332.8,404.3z"/>
	</g>
	<g>
		<path class="st2" d="M122.8,173.9c0.1,2.2,1.9,3.8,4.1,3.7c2.2-0.1,3.8-1.9,3.7-4.1c-0.1-2.2-1.9-3.8-4.1-3.7
			C124.4,169.9,122.7,171.7,122.8,173.9z"/>
	</g>
	<g>
		<path class="st2" d="M156.5,318.7c0.1,2.2,1.9,3.8,4.1,3.7s3.8-1.9,3.7-4.1c-0.1-2.2-1.9-3.8-4.1-3.7
			C158.1,314.7,156.4,316.5,156.5,318.7z"/>
	</g>
	<g>
		<path class="st2" d="M395.9,418.1c0.1,2.2,1.9,3.8,4.1,3.7s3.8-1.9,3.7-4.1c-0.1-2.2-1.9-3.8-4.1-3.7
			C397.5,414.1,395.8,416,395.9,418.1z"/>
	</g>
	<g>
		<path class="st2" d="M375.1,278.8c0.1,2.2,1.9,3.8,4.1,3.7c2.2-0.1,3.8-1.9,3.7-4.1c-0.1-2.2-1.9-3.8-4.1-3.7
			C376.7,274.8,375,276.7,375.1,278.8z"/>
	</g>
	<g>
		<path class="st2" d="M450.7,445.2c0.1,2.2,1.9,3.8,4.1,3.7c2.2-0.1,3.8-1.9,3.7-4.1c-0.1-2.2-1.9-3.8-4.1-3.7
			C452.3,441.3,450.6,443.1,450.7,445.2z"/>
	</g>
	<g>
		<path class="st2" d="M221,457.2c0.1,2.2,1.9,3.8,4.1,3.7c2.2-0.1,3.8-1.9,3.7-4.1c-0.1-2.2-1.9-3.8-4.1-3.7
			C222.5,453.3,220.9,455.1,221,457.2z"/>
	</g>
	<g>
		<path class="st2" d="M261,496.3c0.1,2.2,1.9,3.8,4.1,3.7s3.8-1.9,3.7-4.1c-0.1-2.2-1.9-3.8-4.1-3.7
			C262.6,492.3,260.9,494.1,261,496.3z"/>
	</g>
	<g>
		
			<ellipse transform="matrix(0.9103 -0.4139 0.4139 0.9103 -42.4343 111.7219)" class="st2" cx="236.6" cy="153.8" rx="3.9" ry="3.9"/>
	</g>
	<g>
		<ellipse transform="matrix(0.807 -0.5906 0.5906 0.807 -135.772 186.5504)" class="st2" cx="217.5" cy="301" rx="3.9" ry="3.9"/>
	</g>
	<g class="st4">
		<path class="st2" d="M800,324.7L712.1,295l-33.9,21l-8.7,86l-35.7-58.4l-42.4,26.3L577.2,291l-53.8,30.7l-52.6,63.8l-9.9-110.1
			l-21.7,1l-18.2,66.3l31.5-13l-54,91.4l21.1-76.9l-132.7,54.7l-0.2,0.1l-71.2-36.3l81.4-66.4L284,265.9l-66.9,35.8l-18.3-112.8
			l-38.3,35l0.3,94.6l65.3,140.4L20.3,275.3l-0.4-0.3l106.4-101.5l58.9-73.9l14.2,87.5l37.3-34.1l47.7,111.6l43.3-23.2l-42.3-31.2
			l39.5-77.9l65.3,76.1l0.4,0.4l-61.1,32.7l49.6,36.6l59.3-2.7l17.5-63.8l5.7,62.7l35.4-1.6l70.4-37.5l0.5-0.3l9.8,54.5l17.8-10.2
			l38.4,62.9l43.3-26.8l3.3-32.1l31.4,10.6l53.7-33.3l50.9,13.9l75.2-28.5L876.4,319l0,0.2l-104.3,62.9L800,324.7z M890.4,247.6
			l-73.7,27.9l-0.1,0.1l-50.8-13.9l-52.7,32.7l87.7,29.7l0.5,0.2l-27,55.6l101.4-61.1L890.4,247.6z M634.5,343l34.3,56.1l8.4-82.6
			L634.5,343z M595.3,280.6l-17.3,9.9l14,77.8l41.3-25.6L595.3,280.6z M681.3,284.6l-3.1,30.3l32.7-20.3L681.3,284.6z M420.6,343.7
			l-19.5,71l49.2-83.3L420.6,343.7z M567.3,236.4l-70,37.3l-0.1,0l-35.5,1.6l9.7,107.9l51.3-62.1l0.1-0.1l54.2-31L567.3,236.4z
			 M184.7,101.7L127,174L21.2,274.9l202.3,180.3L160,318.7l0-0.1l-0.3-95l0-0.2l39-35.6L184.7,101.7z M438.2,276.4l-59.4,2.7
			l-50.2-37l-43.8,23.4l12.9,30.1l23.8-19.5l-0.6,76.1L297.3,297l-80.2,65.4l69.6,35.5l133.1-54.8L438.2,276.4z M298.1,296.4
			l22,51.4l0.6-69.8L298.1,296.4z M439.4,275.4l21.3-1l-5.2-57.7L439.4,275.4z M236.5,154.6l-36.8,33.6l18.2,112.1l65.9-35.2
			L236.5,154.6z M325.2,134l-38.5,76l42,31l60.5-32.4L325.2,134z"/>
	</g>
	<g class="st6">
		<path class="st2" d="M800,325l16.3-50.6l60.9,44.9L800,325z M801.2,324l73.5-5.4l-58-42.7L801.2,324z"/>
	</g>
	<g>
		
			<rect x="764" y="283.8" transform="matrix(0.1159 -0.9933 0.9933 0.1159 357.8137 1042.4319)" class="st2" width="0.9" height="72.8"/>
	</g>
	<g class="st4">
		<polygon class="st2" points="816.9,275.3 848.4,218 770.5,220 700.6,214.3 700.5,214.6 680.6,282.8 681.4,283 701.3,215.2 
			770.4,220.9 846.8,219 816.1,274.9 		"/>
	</g>
	<g class="st7">
		<path class="st2" d="M669.2,401l-0.1,0l-77.6-31.6l-36-25l-84.2,40.3l-0.1,0.1l-151.5-34.5l58.9-71.9l11.1-71.1l62,122.8l70.7-9.1
			l-25.6-47.4l-42-60l112.7,21.7l0.2-0.4l0.3,0.4l61-7l0.2,0l52,55.3l1.6,0.1L556.5,344l35.4,24.6l77.3,31.4l103.2-19.5L728,316.3
			l-0.2-0.3l38-55.7l35.2,63.9l-0.8,0.4L765.7,262L728.9,316l45,65.2L669.2,401z M523,321.8l-71.9,9.3l-61-120.9l-10.7,68.5l0,0.1
			l-58.1,70.9l149.8,34.1l83.6-40L523,321.8z M595.4,280.5l-0.2,0l-27.5-43.8l-44,84.6l31.9,22.2l123.5-59.1L595.4,280.5z
			 M568.4,236.1l27.3,43.5l84.1,3.9l-51.1-54.3L568.4,236.1z M456.8,214.9l40.8,58.2l25.5,47.3l43.9-84.3L456.8,214.9z"/>
	</g>
	<g>
		<path class="st2" d="M469,384.1l124.5-15.8l-56.2,37.3l-0.2,0.1L469,384.1z M473.2,384.5l63.7,20.3l52.8-35.1L473.2,384.5z"/>
	</g>
	<g>
		<line class="st2" x1="126.3" y1="173.7" x2="127.2" y2="173.7"/>
	</g>
	<g>
		<polygon class="st2" points="298.5,442.6 287.3,398.9 333.6,402.5 320.9,349.9 320,350.1 332.5,401.5 286.1,397.9 297.6,442.8 		
			"/>
	</g>
	<g>
		<path class="st2" d="M225.3,457c-0.1-0.9-8.3-90.7-8.5-94.5l-0.9,0c0.2,3.9,8.2,90.8,8.5,94.5L225.3,457z"/>
	</g>
	<g class="st8">
		<polygon class="st2" points="454.9,445.7 455.1,445.2 471.6,384.3 471.6,384.2 451.8,330.3 451.6,330.2 379.1,278.2 379,278.2 
			321.4,276.6 286.4,210 285.6,210.4 320.8,277.5 378.8,279.1 451,330.9 470.7,384.4 454.3,444.4 399.9,417.5 332.9,401.5 
			297.8,442.3 226.3,456.3 287.1,398.7 321.4,349.4 216.8,362 217.9,300.8 217.8,300.7 160.5,223.4 159.7,223.9 217,301.1 
			215.9,363 319.5,350.6 286.4,398.1 223.4,457.8 298.3,443.1 333.2,402.5 399.6,418.4 		"/>
	</g>
	<g>
		<polygon class="st2" points="399.7,418.5 400,418.3 471.3,384.7 470.9,383.9 399.9,417.4 321.5,350.3 451.4,331 451.3,330.1 
			319.4,349.7 		"/>
	</g>
	<g>
		<path class="st2" d="M217.3,301.4l-1.2-0.6l105.4-24.3l-0.6,73.4L217.3,301.4z M218.9,301.1L320,348.5l0.6-70.9L218.9,301.1z"/>
	</g>
	<g>
		<polygon class="st2" points="107.7,424.4 161,318.3 160.6,318.1 71.7,267.2 160.3,224.1 159.9,223.2 69.8,267.2 70.5,267.6 
			159.8,318.7 106.9,424 		"/>
	</g>
	<g class="st6">
		<polygon class="st2" points="766.1,262 770.9,220.5 770,220.4 765.3,260.4 701,214.3 628.7,228.3 628.6,228.4 595.1,279.8 
			595.8,280.3 629.2,229.1 700.8,215.2 		"/>
	</g>
	<g class="st4">
		<path class="st2" d="M569.6,449.4l-114.9-3.9l-160.2-2.4l105.2-25.6l0.1,0l80.5,14.7l56.5-27.3l0.1,0l134.3-4.8l-100.9,49.1
			l0.4,0.5L569.6,449.4z M537.9,405.7l31.8,42.7l97.2-47.3L537.9,405.7z M481.8,432.5l86.8,15.9l-31.7-42.5L481.8,432.5z
			 M456.5,444.7l107,3.6l-83.1-15.2L456.5,444.7z M399.8,418.4l-98.2,23.9l153,2.3l24.4-11.8L399.8,418.4z"/>
	</g>
	<g class="st4">
		<polygon class="st2" points="518.3,193.3 518.8,192.6 431.9,143.7 455.3,214.4 456.2,214.1 433.5,145.6 		"/>
	</g>
	<g class="st7">
		<path class="st2" d="M518.5,193.5l-62.6,21.2l-0.1,0l-65.9-5.5l-103.9,1.4l-0.2,0l-50.1-57.1l89.2-20.8l0.1,0l107.7,11.4l0.7,0.1
			l-42.7,64.1l65,5.4l63-21.3l49.3,43l-0.6,0.7L518.5,193.5z M325.1,133.6l-87.6,20.4l48.8,55.6l103.4-1.4l42.2-63.3L325.1,133.6z"
			/>
	</g>
	<g class="st4">
		<polygon class="st2" points="367.7,500.1 367.8,500 454.9,445.4 454.4,444.7 367.4,499.2 265.7,495.7 298.4,443 297.6,442.5 
			264.1,496.5 		"/>
	</g>
	<g>
		<polygon class="st2" points="368.5,501 333.5,401.8 332.6,402.1 366.6,498.2 298.3,442.4 297.7,443.1 		"/>
	</g>
	<g class="st0">
		<polygon class="st2" points="166.9,544.8 265.7,496.2 225.1,456.6 224.9,456.6 105.1,435.4 104.9,436.3 224.6,457.5 264.2,496 
			166.5,544 		"/>
	</g>
	<g>
		
			<rect x="701.8" y="286.1" transform="matrix(0.283 -0.9591 0.9591 0.283 158.264 931.6593)" class="st2" width="0.9" height="147.8"/>
	</g>
	<g class="st4">
		
			<rect x="573.3" y="152.8" transform="matrix(0.3081 -0.9514 0.9514 0.3081 196.4344 691.7151)" class="st2" width="0.9" height="116"/>
	</g>
	<g class="st8">
		<polygon class="st2" points="669.5,400.8 729,315.9 682,284.1 765.9,261.6 765.9,261.6 847.6,219 891.3,247.6 905.1,207 
			982.6,235.6 982.8,235.4 1089.2,156.6 1110.7,173.2 1123.7,123 1158.7,97.5 1158.2,96.7 1122.9,122.5 1122.9,122.7 1110.2,171.7 
			1089.2,155.4 982.5,234.5 904.6,205.8 890.8,246.2 847.6,218 847.4,218.1 765.5,260.8 679.9,283.8 727.7,316.1 668.7,400.3 		"/>
	</g>
	<g class="st4">
		<polygon class="st2" points="1123.8,122.8 1134.1,59.7 1133.2,59.5 1122.9,122.7 		"/>
	</g>
	<g class="st0">
		<polygon class="st2" points="1065,249.3 1144.5,185.3 1123.8,122.8 1147.2,71.2 1200.2,7.5 1199.5,6.9 1146.4,70.7 1146.4,70.8 
			1122.9,122.7 1122.9,122.9 1143.4,185 1065.3,247.8 1034,169.1 1033.1,169.5 		"/>
	</g>
	<g class="st4">
		<polygon class="st2" points="920,272.7 975.2,195.8 975,195.5 940.3,156.1 939.6,156.7 974.1,195.8 919.3,272.2 		"/>
	</g>
	<g class="st6">
		<polygon class="st2" points="1065.3,249.1 1110.6,173 1143.8,185.5 1144.1,184.7 1110.3,171.9 1065,247.9 974.6,195.3 
			890.3,246.8 919,272.5 875.7,318.6 876.3,319.2 920.3,272.5 891.8,246.9 974.6,196.3 		"/>
	</g>
	<g class="st4">
		<polygon class="st2" points="1065.1,249 1065.2,248.1 982.5,234.6 982.3,234.7 919.4,272.1 919.9,272.9 982.7,235.5 		"/>
	</g>
	<g class="st4">
		<polygon class="st2" points="1089.5,156.3 1123.7,123.1 1159,97.2 1147.1,70.6 1133.9,59.3 1133.4,59.9 1146.5,71.2 1157.9,96.9 
			1123.1,122.4 1088.9,155.7 		"/>
	</g>
	<g class="st4">
		<polygon class="st2" points="983,234.9 974.4,196.1 1033.7,169.7 1033.4,168.9 973.3,195.6 982.1,235.1 		"/>
	</g>
	<g>
		
			<rect x="1032.8" y="162.2" transform="matrix(0.9725 -0.2327 0.2327 0.9725 -8.71 251.4798)" class="st2" width="57.2" height="0.9"/>
	</g>
	<g class="st4">
		<path class="st2" d="M940.2,156.9l-35,49.7l-0.1,0.1l-59.7,12.6l94.3-63.3l0.1-0.2l93.8,12.9l-0.1,0.9L940.2,156.9z M849.8,217.6
			l54.8-11.6l33.6-47.8L849.8,217.6z"/>
	</g>
	<g class="st0">
		<polygon class="st2" points="1089.6,156.2 1134,59.9 1200.1,7.6 1199.6,6.8 1133.3,59.3 1133.2,59.4 1088.8,155.8 		"/>
	</g>
	<g class="st1">
		<polygon class="st2" points="1033.5,169.3 973.9,195.8 1065.1,248.5 		"/>
	</g>
	<g class="st4">
		
			<rect x="279.1" y="176.9" transform="matrix(0.9129 -0.4081 0.4081 0.9129 -41.1061 162.0925)" class="st2" width="160.6" height="0.9"/>
	</g>
</g>
</svg>
