<svg xmlns="http://www.w3.org/2000/svg" width="36" height="35" viewBox="0 0 36 35">
    <path fill="#9A81A3" fill-rule="evenodd" d="M18.634 3.155c2.91 2.878 3.757 6.968 2.685 10.625l13.763 13.613c.152.15.249.349.273.56l.64 6.007a.933.933 0 0 1-.293.785.954.954 0 0 1-.809.242l-8.024-1.36h-.002a.941.941 0 0 1-.786-.84l-.261-2.874-2.906-.258a.944.944 0 0 1-.86-.851l-.262-2.874-2.906-.259h-.002a.965.965 0 0 1-.586-.27l-4.363-4.315c-3.694 1.054-7.835.22-10.743-2.656a10.73 10.73 0 0 1 0-15.273c4.256-4.21 11.186-4.21 15.441 0v-.002zM17.29 4.483c-3.53-3.492-9.226-3.492-12.756 0a8.839 8.839 0 0 0 0 12.617c2.547 2.52 6.22 3.191 9.4 2.074h-.002a.957.957 0 0 1 .986.23l4.47 4.42 3.367.3c.456.041.818.399.86.852l.262 2.874 2.906.259c.456.04.82.398.86.85l.262 2.937 6.073 1.027-.462-4.42L19.62 14.756a.933.933 0 0 1-.22-.987c1.128-3.143.44-6.766-2.108-9.286zm-6.042 1.328a3.739 3.739 0 0 1 0 5.311c-1.476 1.46-3.896 1.46-5.37 0a3.739 3.739 0 0 1 0-5.311c1.476-1.46 3.896-1.46 5.37 0zM9.907 7.139a1.9 1.9 0 0 0-2.686 0 1.85 1.85 0 0 0 0 2.656 1.9 1.9 0 0 0 2.686 0 1.85 1.85 0 0 0 0-2.656z"/>
</svg>
