<svg xmlns="http://www.w3.org/2000/svg" width="76" height="29" viewBox="0 0 76 29">
    <g fill="#9A81A3" fill-rule="evenodd">
        <path stroke="#FFF" d="M71.636 1.243H1.44v26.322h73.12V1.243h-2.924zm0 23.402H4.364V4.167h67.272v20.478z"/>
        <path d="M7.606 17.599l1.567 1.193c.495-.696 1.073-1.7 1.726-3.024.7 1.273 1.307 2.282 1.819 3.024l1.591-1.198c-.984-1.274-1.742-2.162-2.283-2.656a15.621 15.621 0 0 0 3.305-.787l-.611-1.995c-1.178.41-2.22.863-3.134 1.349.176-1.395.281-2.56.306-3.486H9.969c.009.637.097 1.806.264 3.503-.636-.386-1.66-.838-3.066-1.366L6.56 14.15c1.026.288 2.11.552 3.25.787-.444.435-1.177 1.32-2.204 2.66zM19.307 17.599l1.567 1.193c.494-.696 1.072-1.7 1.726-3.024.7 1.273 1.307 2.282 1.818 3.024l1.592-1.198c-.985-1.274-1.743-2.162-2.283-2.656a15.606 15.606 0 0 0 3.305-.787l-.611-1.995c-1.178.41-2.22.863-3.134 1.349.176-1.395.28-2.56.306-3.486H21.67c.008.637.096 1.806.264 3.503-.637-.386-1.659-.838-3.067-1.366l-.611 1.995a47.42 47.42 0 0 0 3.25.787c-.44.435-1.173 1.32-2.199 2.66zM31.004 17.599l1.567 1.193c.494-.696 1.073-1.7 1.726-3.024.699 1.273 1.307 2.282 1.818 3.024l1.592-1.198c-.984-1.274-1.743-2.162-2.283-2.656 1.08-.13 2.182-.394 3.305-.787l-.612-1.995a22.36 22.36 0 0 0-3.133 1.349c.176-1.395.28-2.56.306-3.486h-1.923c.009.637.096 1.806.264 3.503-.637-.386-1.66-.838-3.067-1.366l-.607 1.995a47.42 47.42 0 0 0 3.25.787c-.44.435-1.176 1.32-2.203 2.66zM42.705 17.599l1.567 1.193c.494-.696 1.072-1.7 1.725-3.024.7 1.273 1.303 2.282 1.818 3.024l1.593-1.198c-.985-1.274-1.743-2.162-2.283-2.656a15.621 15.621 0 0 0 3.305-.787l-.611-1.995c-1.178.41-2.222.863-3.134 1.349.176-1.395.28-2.56.305-3.486h-1.927c.009.637.097 1.806.264 3.503-.637-.386-1.659-.838-3.066-1.366l-.604 1.995a47.42 47.42 0 0 0 3.25.787c-.439.435-1.176 1.32-2.202 2.66zM54.405 17.599l1.567 1.193c.495-.696 1.073-1.7 1.726-3.024.7 1.273 1.303 2.282 1.818 3.024l1.592-1.198c-.984-1.274-1.742-2.162-2.283-2.656a15.621 15.621 0 0 0 3.305-.787l-.61-1.995c-1.178.41-2.222.863-3.135 1.349.176-1.395.281-2.56.306-3.486h-1.927c.008.637.096 1.806.264 3.503-.637-.386-1.66-.838-3.067-1.366l-.608 1.995c1.027.288 2.112.552 3.252.787-.44.435-1.173 1.32-2.2 2.66zM68.712 18.792H67.25V9.287h1.463V7.824h-4.386v1.463h1.462v9.505h-1.462v1.462h4.386z"/>
    </g>
</svg>
