<?xml version="1.0" encoding="UTF-8"?>
<svg width="89px" height="27px" viewBox="0 0 89 27" version="1.1" xmlns="http://www.w3.org/2000/svg" xmlns:xlink="http://www.w3.org/1999/xlink">
    <!-- Generator: Sketch 50.2 (55047) - http://www.bohemiancoding.com/sketch -->
    <title>ripple-logo</title>
    <desc>Created with Sketch.</desc>
    <defs>
        <linearGradient x1="28.1560306%" y1="15.3500594%" x2="103.311703%" y2="84.6715268%" id="linearGradient-1">
            <stop stop-color="#1DB4FF" offset="0%"></stop>
            <stop stop-color="#0F72E5" offset="100%"></stop>
        </linearGradient>
    </defs>
    <g id="Home" stroke="none" stroke-width="1" fill="none" fill-rule="evenodd">
        <g transform="translate(-766.000000, -3567.000000)" fill-rule="nonzero" id="ripple-logo">
            <g transform="translate(766.000000, 3567.000000)">
                <path d="M32.6070529,10.2807571 C32.3753149,10.1987382 31.8816121,10.1474763 31.3979849,10.1474763 C29.9269521,10.1474763 28.3551637,11.3572555 28.3551637,12.8541009 L28.3551637,20 L25,20 L25,7.25630915 L28.2241814,7.25630915 L28.2241814,8.54810726 C28.9697733,7.60488959 30.3400504,7 31.861461,7 C32.2443325,7 32.627204,7.04100946 33,7.10252366 L32.6070529,10.2807571 Z" id="Shape" fill="#23292F"></path>
                <path d="M36,0 C37.1009174,0 38,0.969952557 38,2.24565103 C38,3.5213495 37.1009174,4.49130206 36,4.49130206 C34.8990826,4.49130206 34,3.5213495 34,2.24565103 C34,0.969952557 34.8899083,0 36,0 Z M37.5321101,20 L34.4770642,20 L34.4770642,6.89509752 L37.5321101,6.89509752 L37.5321101,20 Z" id="Shape" fill="#23292F"></path>
                <path d="M47.8764479,7.0006785 C46.5513514,6.9794478 45.2563707,7.4571386 44.2223938,8.33821274 L44.2223938,7.27667763 L41,7.27667763 L41,27 L44.3528958,27 L44.3528958,19.5480235 C45.3065637,20.3441749 46.4911197,20.7687889 47.6957529,20.7475582 C49.5528958,20.7475582 51.3196911,19.8770994 52.4339768,18.5183345 C53.407722,17.3187998 54,15.6840357 54,13.8900414 C54,9.99420751 51.2694981,7.0006785 47.8764479,7.0006785 Z M47.4648649,17.5311068 C45.3868726,17.5311068 44.0216216,16.0131116 44.0216216,13.9006567 C44.0216216,11.7882019 45.3868726,10.2702066 47.4648649,10.2702066 C49.2416988,10.2702066 50.6772201,11.8943554 50.6772201,13.9006567 C50.6772201,15.9069581 49.2416988,17.5311068 47.4648649,17.5311068 Z" id="Shape" fill="#23292F"></path>
                <polygon id="Shape" fill="#23292F" points="75 20 72 20 72 1 74.991018 1"></polygon>
                <path d="M88.6879195,17.76139 C87.4798658,19.2069498 85.4865772,20 83.5536913,20 C79.8087248,20 77,17.4301158 77,13.5150579 C77,10.0416988 79.3758389,7 83.090604,7 C86.5536913,7 89,9.91119691 89,13.384556 C89,13.7057915 88.9798658,14.027027 88.9194631,14.3382239 L80.2516779,14.3382239 C80.4328859,16.0849421 81.852349,17.2996139 83.6342282,17.2996139 C85.0536913,17.2996139 86.1912752,16.5065637 86.7852349,15.8540541 L88.6879195,17.76139 Z M85.5671141,11.8888031 C85.466443,10.784556 84.4597315,9.7003861 83.090604,9.7003861 C81.7013423,9.7003861 80.5637584,10.7544402 80.4026846,11.8888031 L85.5671141,11.8888031 Z" id="Shape" fill="#23292F"></path>
                <path d="M62.8817474,7.0006785 C61.5556296,6.9794478 60.2596509,7.4571386 59.2248772,8.33821274 L59.2248772,7.27667763 L56,7.27667763 L56,27 L59.3454334,27 L59.3454334,19.5480235 C60.2998363,20.3441749 61.4853052,20.7687889 62.6908668,20.7475582 C64.5494409,20.7475582 66.3175979,19.8770994 67.4327423,18.5183345 C68.4072379,17.3187998 68.9999724,15.6840357 68.9999724,13.8900414 C69.0100187,9.99420751 66.2774125,7.0006785 62.8817474,7.0006785 Z M62.4698472,17.5311068 C60.3902534,17.5311068 59.0239503,16.0131116 59.0239503,13.9006567 C59.0239503,11.7882019 60.3902534,10.2702066 62.4698472,10.2702066 C64.2480505,10.2702066 65.684678,11.8943554 65.684678,13.9006567 C65.684678,15.9069581 64.2480505,17.5311068 62.4698472,17.5311068 Z" id="Shape" fill="#23292F"></path>
                <path d="M17.7244065,15.4286465 C16.9601182,14.9840528 16.0939249,14.8496407 15.2379221,14.8186226 C14.5245864,14.7979438 13.4545829,14.3223319 13.4545829,12.9988901 C13.4545829,12.0166482 14.2392521,11.2205152 15.2481126,11.1791576 C16.1041154,11.1481395 16.9703088,11.0137274 17.734597,10.5691337 C19.9051756,9.29738885 20.6388923,6.48507504 19.3956501,4.29312457 C18.1320269,2.1011741 15.3602082,1.34639871 13.1896296,2.61814355 C11.7833392,3.43495528 10.9273364,4.95484547 10.9273364,6.59880832 C10.9273364,7.48799577 11.2432422,8.3048075 11.6406721,9.06992229 C11.9769589,9.71096441 12.1400071,10.8999941 10.99867,11.5720544 C10.1426671,12.0683451 9.0726636,11.7581634 8.54275709,10.8896548 C8.09437465,10.1555581 7.55427763,9.47315846 6.78998939,9.02856473 C4.61941078,7.75681988 1.84759209,8.51159528 0.604349889,10.7035457 C-0.638892317,12.8954962 0.0948243947,15.70781 2.265403,16.9795549 C3.67169336,17.7963666 5.39388953,17.7963666 6.78998939,16.9795549 C7.55427763,16.5349611 8.09437465,15.8525615 8.54275709,15.1184649 C8.90961544,14.5187803 9.83695184,13.7536655 10.99867,14.4360652 C11.8546728,14.9323558 12.1196261,16.0283311 11.6406721,16.9381973 C11.2432422,17.6929727 10.9273364,18.5201238 10.9273364,19.4093113 C10.9273364,21.9424616 12.9552479,24 15.4519228,24 C17.9485977,24 19.9765092,21.9424616 19.9765092,19.4093113 C19.9866997,17.7653484 19.1205063,16.2454583 17.7244065,15.4286465 Z" id="Shape" fill="url(#linearGradient-1)"></path>
            </g>
        </g>
    </g>
</svg>