<svg xmlns="http://www.w3.org/2000/svg" width="39" height="53" viewBox="0 0 39 53">
    <path fill="#9A81A3" fill-rule="evenodd" stroke="#FFF" stroke-width=".5" d="M1 19.945c0 4.515 3.469 8.37 7.818 8.646h20.539C34.202 28.259 38 24.075 38 19.118c0-4.296-2.918-8.095-6.882-9.196C30.236 4.799 25.778 1 20.49 1a10.746 10.746 0 0 0-9.303 5.342 6.656 6.656 0 0 0-1.045-.11c-3.304 0-6 2.698-6 6.002 0 .385.055.77.11 1.158C2.266 14.876 1 17.354 1 19.944zm5.284-5.069c.495-.275.716-.882.495-1.433-.166-.385-.22-.826-.22-1.267 0-1.984 1.652-3.636 3.635-3.636.441 0 .826.056 1.21.22.552.22 1.212-.056 1.487-.607 1.376-2.973 4.405-4.847 7.652-4.847 4.404 0 7.983 3.304 8.424 7.654.056.551.441.936.992 1.046 3.303.55 5.78 3.636 5.78 7.103 0 3.69-2.918 6.885-6.44 7.16H8.926c-3.028-.166-5.561-3.085-5.561-6.277.002-2.141 1.103-4.069 2.918-5.116zm13.27 16.91c-.66 0-1.157.55-1.157 1.157V44.84a3.75 3.75 0 0 0-2.534 3.414C15.808 50.292 17.405 52 19.443 52h.109c1.983 0 3.634-1.596 3.688-3.58 0-.992-.331-1.927-.991-2.644-.441-.44-.936-.77-1.486-.936l.002-11.899c-.054-.66-.55-1.155-1.211-1.155zm0 17.899c-.77 0-1.376-.66-1.32-1.377 0-.716.606-1.32 1.32-1.32h.056c.385 0 .716.165.935.44.22.276.385.607.385.936-.055.714-.66 1.32-1.376 1.32zM8.267 42.689h2.919a3.948 3.948 0 0 0 3.963-3.965V32.94c0-.66-.55-1.157-1.157-1.157-.66 0-1.157.55-1.157 1.157v5.727c0 .935-.716 1.652-1.651 1.652H8.265c-.495-1.433-1.87-2.534-3.469-2.534a3.69 3.69 0 0 0 0 7.379 3.687 3.687 0 0 0 3.471-2.477zm-4.845-1.211c0-.717.606-1.321 1.32-1.321.717 0 1.32.606 1.32 1.32a1.34 1.34 0 0 1-1.32 1.321c-.714.056-1.32-.548-1.32-1.32zm21.693-9.693c-.66 0-1.157.551-1.157 1.158v5.727a3.948 3.948 0 0 0 3.964 3.965h2.918c.495 1.432 1.872 2.534 3.47 2.534a3.69 3.69 0 0 0 0-7.38c-1.596 0-2.973 1.046-3.47 2.535h-2.918a1.623 1.623 0 0 1-1.652-1.652V32.94c0-.66-.494-1.156-1.155-1.156zm9.194 8.371c.717 0 1.32.607 1.32 1.321a1.34 1.34 0 0 1-1.32 1.321 1.34 1.34 0 0 1-1.32-1.32 1.336 1.336 0 0 1 1.32-1.322z"/>
</svg>
